<?xml version="1.0" encoding="UTF-8" standalone="no"?>
<!-- Created with Inkscape (http://www.inkscape.org/) -->

<svg
   xmlns:dc="http://purl.org/dc/elements/1.1/"
   xmlns:cc="http://creativecommons.org/ns#"
   xmlns:rdf="http://www.w3.org/1999/02/22-rdf-syntax-ns#"
   xmlns:svg="http://www.w3.org/2000/svg"
   xmlns="http://www.w3.org/2000/svg"
   xmlns:sodipodi="http://sodipodi.sourceforge.net/DTD/sodipodi-0.dtd"
   xmlns:inkscape="http://www.inkscape.org/namespaces/inkscape"
   width="1200"
   height="900"
   id="svg3147"
   version="1.1"
   inkscape:version="0.91 r13725"
   sodipodi:docname="arena.svg">
  <defs
     id="defs3149">
    <marker
       inkscape:stockid="Arrow2Sstart"
       orient="auto"
       refY="0.0"
       refX="0.0"
       id="Arrow2Sstart"
       style="overflow:visible">
      <path
         id="path6081"
         style="fill-rule:evenodd;stroke-width:0.62500000;stroke-linejoin:round"
         d="M 8.7185878,4.0337352 L -2.2072895,0.016013256 L 8.7185884,-4.0017078 C 6.9730900,-1.6296469 6.9831476,1.6157441 8.7185878,4.0337352 z "
         transform="scale(0.3) translate(-2.3,0)" />
    </marker>
    <marker
       inkscape:stockid="Arrow2Send"
       orient="auto"
       refY="0.0"
       refX="0.0"
       id="Arrow2Send"
       style="overflow:visible;">
      <path
         id="path6084"
         style="fill-rule:evenodd;stroke-width:0.62500000;stroke-linejoin:round;"
         d="M 8.7185878,4.0337352 L -2.2072895,0.016013256 L 8.7185884,-4.0017078 C 6.9730900,-1.6296469 6.9831476,1.6157441 8.7185878,4.0337352 z "
         transform="scale(0.3) rotate(180) translate(-2.3,0)" />
    </marker>
    <marker
       inkscape:stockid="Arrow2Mstart"
       orient="auto"
       refY="0.0"
       refX="0.0"
       id="Arrow2Mstart"
       style="overflow:visible">
      <path
         id="path6075"
         style="fill-rule:evenodd;stroke-width:0.62500000;stroke-linejoin:round"
         d="M 8.7185878,4.0337352 L -2.2072895,0.016013256 L 8.7185884,-4.0017078 C 6.9730900,-1.6296469 6.9831476,1.6157441 8.7185878,4.0337352 z "
         transform="scale(0.6) translate(0,0)" />
    </marker>
    <marker
       inkscape:stockid="Arrow2Mend"
       orient="auto"
       refY="0.0"
       refX="0.0"
       id="Arrow2Mend"
       style="overflow:visible;">
      <path
         id="path6078"
         style="fill-rule:evenodd;stroke-width:0.62500000;stroke-linejoin:round;"
         d="M 8.7185878,4.0337352 L -2.2072895,0.016013256 L 8.7185884,-4.0017078 C 6.9730900,-1.6296469 6.9831476,1.6157441 8.7185878,4.0337352 z "
         transform="scale(0.6) rotate(180) translate(0,0)" />
    </marker>
    <inkscape:path-effect
       effect="spiro"
       id="path-effect3986"
       is_visible="true" />
  </defs>
  <sodipodi:namedview
     id="base"
     pagecolor="#ffffff"
     bordercolor="#666666"
     borderopacity="1.0"
     inkscape:pageopacity="0.0"
     inkscape:pageshadow="2"
     inkscape:zoom="1"
     inkscape:cx="196.23457"
     inkscape:cy="448.29114"
     inkscape:document-units="px"
     inkscape:current-layer="layer1"
     showgrid="true"
     inkscape:window-width="1920"
     inkscape:window-height="1017"
     inkscape:window-x="-8"
     inkscape:window-y="-8"
     inkscape:window-maximized="1">
    <inkscape:grid
       type="xygrid"
       id="grid3155"
       empspacing="1"
       visible="false"
       enabled="true"
       snapvisiblegridlinesonly="true"
       dotted="true" />
  </sodipodi:namedview>
  <metadata
     id="metadata3152">
    <rdf:RDF>
      <cc:Work
         rdf:about="">
        <dc:format>image/svg+xml</dc:format>
        <dc:type
           rdf:resource="http://purl.org/dc/dcmitype/StillImage" />
        <dc:title />
      </cc:Work>
    </rdf:RDF>
  </metadata>
  <g
     inkscape:label="Layer 1"
     inkscape:groupmode="layer"
     id="layer1"
     transform="translate(0,-152.36218)">
    <rect
       style="fill:#f4f3ff;stroke:#000000;stroke-width:2.01462078000000000;stroke-miterlimit:4;stroke-opacity:1;stroke-dasharray:none;stroke-dashoffset:0;fill-opacity:1"
       id="rect3157"
       width="799.98535"
       height="799.98541"
       x="50.007309"
       y="202.36946" />
    <g
       id="g4055"
       style="fill:#fff5e0;fill-opacity:1;opacity:1" />
    <g
       id="g4093"
       style="fill:#29af69;fill-opacity:1">
      <rect
         transform="matrix(0.70710678,0.70710678,-0.70710678,0.70710678,0,0)"
         style="fill:#29af69;fill-opacity:1;stroke:none"
         id="rect4004"
         width="35.355339"
         height="35.355339"
         x="726.2478"
         y="602.66022" />
      <rect
         y="90.714943"
         x="1238.1924"
         height="35.355339"
         width="35.355339"
         id="rect4061"
         style="fill:#29af69;fill-opacity:1;stroke:none"
         transform="matrix(0.70710678,0.70710678,-0.70710678,0.70710678,0,0)" />
      <rect
         y="-249.05014"
         x="-125.45989"
         height="35.355339"
         width="35.355339"
         id="rect4077"
         style="fill:#29af69;fill-opacity:1;stroke:none"
         transform="matrix(0.70710678,-0.70710678,-0.70710678,-0.70710678,0,0)" />
      <rect
         transform="matrix(0.70710678,-0.70710678,-0.70710678,-0.70710678,0,0)"
         style="fill:#29af69;fill-opacity:1;stroke:none"
         id="rect4079"
         width="35.355339"
         height="35.355339"
         x="386.48526"
         y="-761.00085" />
    </g>
    <g
       id="g4099" />
    <g
       id="g6013"
       transform="translate(0,477.06554)">
      <text
         sodipodi:linespacing="125%"
         id="text5911"
         y="294.44321"
         x="923.97198"
         style="font-size:40px;font-style:normal;font-weight:normal;line-height:125%;letter-spacing:0px;word-spacing:0px;fill:#000000;fill-opacity:1;stroke:none;font-family:Sans"
         xml:space="preserve"><tspan
           y="294.44321"
           x="923.97198"
           id="tspan5913"
           sodipodi:role="line"
           style="font-weight:bold">Legend</tspan></text>
      <g
         transform="translate(1.7968451,8)"
         id="g5999">
        <g
           id="g5987"
           transform="translate(0,-4.7379712e-5)">
          <rect
             transform="matrix(0.70710678,-0.70710678,-0.70710678,-0.70710678,0,0)"
             style="fill:#29af69;fill-opacity:1;stroke:none"
             id="rect4077-8"
             width="35.355339"
             height="35.355339"
             x="412.17267"
             y="-924.75446" />
          <text
             xml:space="preserve"
             style="font-size:40px;font-style:normal;font-weight:normal;line-height:125%;letter-spacing:0px;word-spacing:0px;fill:#000000;fill-opacity:1;stroke:none;font-family:Sans"
             x="997.40234"
             y="352.36218"
             id="text5915"
             sodipodi:linespacing="125%"><tspan
               sodipodi:role="line"
               id="tspan5917"
               x="997.40234"
               y="352.36218"
               style="font-size:32px">Robot</tspan></text>
        </g>
        <g
           id="g5992"
           transform="translate(0,-13.42414)">
          <rect
             transform="matrix(0.70710678,-0.70710678,-0.70710678,-0.70710678,0,0)"
             y="-974.37762"
             x="362.54959"
             height="25"
             width="25"
             id="rect4075-6"
             style="fill:#aa0000;fill-opacity:1;stroke:none" />
          <text
             sodipodi:linespacing="125%"
             id="text5919"
             y="429.86218"
             x="1001.4453"
             style="font-size:40px;font-style:normal;font-weight:normal;line-height:125%;letter-spacing:0px;word-spacing:0px;fill:#000000;fill-opacity:1;stroke:none;font-family:Sans"
             xml:space="preserve"><tspan
               y="429.86218"
               x="1001.4453"
               id="tspan5921"
               sodipodi:role="line"
               style="font-size:32px">Flag</tspan></text>
        </g>
        <g
           id="g5967"
           transform="translate(0,-47.999989)">
          <path
             inkscape:connector-curvature="0"
             id="path4039-9"
             d="m 960.78491,544.08539 0,-54.70276 -30.86931,0 0,54.70276 z"
             style="fill:#c9c9c9;fill-opacity:1;stroke:#000000;stroke-width:1.56149292;stroke-linecap:butt;stroke-linejoin:miter;stroke-miterlimit:4;stroke-opacity:1;stroke-dasharray:none" />
          <text
             xml:space="preserve"
             style="font-size:40px;font-style:normal;font-weight:normal;line-height:125%;letter-spacing:0px;word-spacing:0px;fill:#000000;fill-opacity:1;stroke:none;font-family:Sans"
             x="1000"
             y="528.6637"
             id="text5923"
             sodipodi:linespacing="125%"><tspan
               sodipodi:role="line"
               x="1000"
               y="528.6637"
               id="tspan5936"
               style="font-size:32px">Barrier</tspan></text>
        </g>
      </g>
      <rect
         y="240.66045"
         x="896.89612"
         height="284.61667"
         width="249.97197"
         id="rect5997"
         style="fill:none;stroke:#000000;stroke-width:2.13089943;stroke-miterlimit:4;stroke-opacity:1;stroke-dasharray:none" />
    </g>
    <g
       id="g10440">
      <path
         sodipodi:nodetypes="cc"
         inkscape:connector-curvature="0"
         id="path10423"
         d="M 848.86506,182.36218 51.648746,181.2252"
         style="fill:none;stroke:#000000;stroke-width:2;stroke-linecap:butt;stroke-linejoin:miter;stroke-miterlimit:4;stroke-opacity:1;stroke-dasharray:none;marker-start:url(#Arrow2Mstart);marker-mid:none;marker-end:url(#Arrow2Mend)" />
      <path
         inkscape:connector-curvature="0"
         id="path10425"
         d="m 49.999999,173.60657 0,26.41071"
         style="fill:none;stroke:#000000;stroke-width:2;stroke-linecap:butt;stroke-linejoin:miter;stroke-miterlimit:4;stroke-opacity:1;stroke-dasharray:4, 2;stroke-dashoffset:0;marker-start:none"
         sodipodi:nodetypes="cc" />
      <path
         sodipodi:nodetypes="cc"
         style="fill:none;stroke:#000000;stroke-width:2;stroke-linecap:butt;stroke-linejoin:miter;stroke-miterlimit:4;stroke-opacity:1;stroke-dasharray:4, 2;stroke-dashoffset:0;marker-start:none"
         d="m 850,173.60657 0,26.41071"
         id="path10427"
         inkscape:connector-curvature="0" />
    </g>
    <g
       id="g10435"
       transform="matrix(0,-1,1,0,-151.60657,1052.1689)">
      <path
         style="fill:none;stroke:#000000;stroke-width:2;stroke-linecap:butt;stroke-linejoin:miter;stroke-miterlimit:4;stroke-opacity:1;stroke-dasharray:none;marker-start:url(#Arrow2Mstart);marker-mid:none;marker-end:url(#Arrow2Mend)"
         d="M 848.86506,182.36218 51.648746,181.2252"
         id="path10429"
         inkscape:connector-curvature="0"
         sodipodi:nodetypes="cc" />
      <path
         sodipodi:nodetypes="cc"
         style="fill:none;stroke:#000000;stroke-width:2;stroke-linecap:butt;stroke-linejoin:miter;stroke-miterlimit:4;stroke-opacity:1;stroke-dasharray:4, 2;stroke-dashoffset:0;marker-start:none"
         d="m 49.999999,173.60657 0,26.41071"
         id="path10431"
         inkscape:connector-curvature="0" />
      <path
         inkscape:connector-curvature="0"
         id="path10433"
         d="m 850,173.60657 0,26.41071"
         style="fill:none;stroke:#000000;stroke-width:2;stroke-linecap:butt;stroke-linejoin:miter;stroke-miterlimit:4;stroke-opacity:1;stroke-dasharray:4, 2;stroke-dashoffset:0;marker-start:none"
         sodipodi:nodetypes="cc" />
    </g>
    <text
       xml:space="preserve"
       style="font-size:40px;font-style:normal;font-weight:normal;line-height:125%;letter-spacing:0px;word-spacing:0px;fill:#000000;fill-opacity:1;stroke:none;font-family:Sans"
       x="377.99127"
       y="170.84267"
       id="text10445"
       sodipodi:linespacing="125%"><tspan
         sodipodi:role="line"
         id="tspan10447"
         x="377.99127"
         y="170.84267"
         style="font-size:20px">8000±200mm</tspan></text>
    <text
       sodipodi:linespacing="125%"
       id="text10449"
       y="18.284832"
       x="-674.17761"
       style="font-size:40px;font-style:normal;font-weight:normal;line-height:125%;letter-spacing:0px;word-spacing:0px;fill:#000000;fill-opacity:1;stroke:none;font-family:Sans"
       xml:space="preserve"
       transform="matrix(0,-1,1,0,0,0)"><tspan
         style="font-size:20px"
         y="18.284832"
         x="-674.17761"
         id="tspan10451"
         sodipodi:role="line">8000±200mm</tspan></text>
    <path
       sodipodi:nodetypes="cc"
       style="fill:none;stroke:#000000;stroke-width:2;stroke-linecap:butt;stroke-linejoin:miter;stroke-miterlimit:4;stroke-opacity:1;stroke-dasharray:4, 2;stroke-dashoffset:0;marker-start:none"
       d="m 50.048497,1003.2634 0,26.4107"
       id="path11471"
       inkscape:connector-curvature="0" />
    <path
       inkscape:connector-curvature="0"
       id="path11473"
       d="m 249.46272,1003.2634 0,26.4107"
       style="fill:none;stroke:#000000;stroke-width:2;stroke-linecap:butt;stroke-linejoin:miter;stroke-miterlimit:4;stroke-opacity:1;stroke-dasharray:4, 2;stroke-dashoffset:0;marker-start:none"
       sodipodi:nodetypes="cc" />
    <path
       sodipodi:nodetypes="cc"
       inkscape:connector-curvature="0"
       id="path11475"
       d="m 245,1026.019 -191.707113,0"
       style="fill:none;stroke:#000000;stroke-width:2;stroke-linecap:butt;stroke-linejoin:miter;stroke-miterlimit:4;stroke-opacity:1;stroke-dasharray:none;marker-start:url(#Arrow2Mstart);marker-mid:none;marker-end:url(#Arrow2Mend)" />
    <text
       sodipodi:linespacing="125%"
       id="text11477"
       y="1050.5"
       x="83.194298"
       style="font-size:40px;font-style:normal;font-weight:normal;line-height:125%;letter-spacing:0px;word-spacing:0px;fill:#000000;fill-opacity:1;stroke:none;font-family:Sans"
       xml:space="preserve"><tspan
         style="font-size:20px"
         y="1050.5"
         x="83.194298"
         id="tspan11479"
         sodipodi:role="line">2000±50mm</tspan></text>
    <path
       style="fill:none;fill-rule:evenodd;stroke:#000000;stroke-width:1px;stroke-linecap:butt;stroke-linejoin:miter;stroke-opacity:1"
       d="m 50,402.36218 200,-200"
       id="path3405"
       inkscape:connector-curvature="0" />
    <path
       style="fill:#ff0000;fill-rule:evenodd;stroke:#000000;stroke-width:1px;stroke-linecap:butt;stroke-linejoin:miter;stroke-opacity:1"
       d="m 650,202.36218 200,200"
       id="path3407"
       inkscape:connector-curvature="0" />
    <path
       style="fill:none;fill-rule:evenodd;stroke:#000000;stroke-width:1px;stroke-linecap:butt;stroke-linejoin:miter;stroke-opacity:1"
       d="M 850,802.36218 650,1002.3622"
       id="path3409"
       inkscape:connector-curvature="0" />
    <path
       style="fill:none;fill-rule:evenodd;stroke:#000000;stroke-width:1px;stroke-linecap:butt;stroke-linejoin:miter;stroke-opacity:1"
       d="M 250,1002.3622 50,802.36218"
       id="path3411"
       inkscape:connector-curvature="0" />
    <path
       style="fill:#008000;fill-opacity:1"
       d="m 51.23457,149.30886 0,-98 98.24809,0 98.24808,0 -97.99617,98 c -53.897895,53.9 -98.109534,98 -98.248087,98 -0.138552,0 -0.251913,-44.1 -0.251913,-98 z M 100.23962,99.803802 112.71465,87.298744 99.97461,74.558704 87.23457,61.818664 74.49453,74.558704 61.75449,87.298744 74.229524,99.803802 c 6.861269,6.877778 12.713539,12.505058 13.005046,12.505058 0.291507,0 6.143777,-5.62728 13.00505,-12.505058 z"
       id="path3415"
       inkscape:connector-curvature="0"
       transform="translate(0,152.36218)" />
    <path
       style="fill:#ffff00;fill-opacity:1"
       d="m 750.23457,148.80886 -97.49615,-97.5 97.74807,0 97.74808,0 0,97.5 c 0,53.625 -0.11337,97.5 -0.25192,97.5 -0.13856,0 -44.1252,-43.875 -97.74808,-97.5 z m 74.00505,-49.005058 12.47503,-12.505058 -12.74004,-12.74004 -12.74004,-12.74004 -12.74004,12.74004 -12.74004,12.74004 12.47503,12.505058 c 6.86127,6.877778 12.71354,12.505058 13.00505,12.505058 0.29151,0 6.14378,-5.62728 13.00505,-12.505058 z"
       id="path3417"
       inkscape:connector-curvature="0"
       transform="translate(0,152.36218)" />
    <path
       style="fill:#ff0000;fill-opacity:1"
       d="m 51.23457,750.56078 0,-97.74807 97.5,97.49615 c 53.625,53.62288 97.5,97.60952 97.5,97.74808 0,0.13855 -43.875,0.25192 -97.5,0.25192 l -97.5,0 0,-97.74808 z M 100.23962,824.8038 112.71465,812.29874 99.97461,799.5587 87.23457,786.81866 74.49453,799.5587 61.75449,812.29874 74.229524,824.8038 c 6.861269,6.87778 12.713539,12.50506 13.005046,12.50506 0.291507,0 6.143777,-5.62728 13.00505,-12.50506 z"
       id="path3419"
       inkscape:connector-curvature="0"
       transform="translate(0,152.36218)" />
    <path
       style="fill:#00ffff;fill-opacity:1"
       d="m 750.23457,750.80886 c 53.62288,-53.625 97.60952,-97.5 97.74808,-97.5 0.13855,0 0.25192,43.875 0.25192,97.5 l 0,97.5 -97.74808,0 -97.74807,0 97.49615,-97.5 z m 74.00505,73.99494 12.47503,-12.50506 -12.74004,-12.74004 -12.74004,-12.74004 -12.74004,12.74004 -12.74004,12.74004 12.47503,12.50506 c 6.86127,6.87778 12.71354,12.50506 13.00505,12.50506 0.29151,0 6.14378,-5.62728 13.00505,-12.50506 z"
       id="path3421"
       inkscape:connector-curvature="0"
       transform="translate(0,152.36218)" />
  </g>
</svg>
