<?xml version="1.0"?>
<svg xmlns="http://www.w3.org/2000/svg" version="1.1"
     xmlns:xlink="http:/www.w3.org/1999/xlink"
     viewBox="0 0 1400 1000">
    <!-- background -->
    <rect width="1400" height="1000" fill="white"/>
    <!-- arena coordinate system -->
    <g transform="translate(100 100)">
        <!-- arrowheads -->
        <defs>
            <marker id="triangle"
                    viewBox="0 0 10 10" refX="0" refY="5"
                    markerUnits="strokeWidth"
                    markerWidth="4" markerHeight="3"
                    orient="auto">
                <path d="M0 0 L10 5 L0 10 z"/>
            </marker>
            <marker id="triangle-back"
                    viewBox="0 0 10 10" refX="10" refY="5"
                    markerUnits="strokeWidth"
                    markerWidth="4" markerHeight="3"
                    orient="auto">
                <path d="M10 0 L0 5 L10 10 z"/>
            </marker>
        </defs>
        <!-- outer wall -->
        <rect x="0" y="0" width="800" height="800"
              stroke="#000" stroke-width="5px" fill="none"/>
        <!-- size markers -->
        <g stroke-width="3.5px" stroke="black" marker-start="url(#triangle-back)" marker-end="url(#triangle)">
            <line x1="10" y1="825" x2="790" y2="825"/>
            <line x1="825" y1="10" x2="825" y2="790"/>
            <line x1="-45" y1="10" x2="-45" y2="90"/>
            <line x1="10" y1="-45" x2="90" y2="-45"/>
            <line x1="80" y1="120" x2="80" y2="280"/>
        </g>
        <!-- alignment -->
        <g stroke-width="3.5px" stroke="black" stroke-dasharray="8, 8">
            <line x1="100" y1="-45" x2="100" y2="100"/>
            <line x1="0" y1="-45" x2="0" y2="0"/>
            <line x1="-45" y1="0" x2="0" y2="0"/>
            <line x1="-45" y1="100" x2="100" y2="100"/>
        </g>
        <defs>
            <symbol id="start">
                <!-- robot start position -->
                <rect x="25" y="25" width="50" height="50" transform="rotate(45 50 50)"
                      fill="red" stroke="#444" stroke-width="1.8px"/>
                <!-- tokens -->
                <g fill="green" stroke="black" stroke-width="3px">
                    <rect x="120" y="20" width="30.5" height="30.5"/>
                    <rect x="160" y="20" width="30.5" height="30.5"/>
                    <rect x="200" y="20" width="30.5" height="30.5"/>
                    <rect x="240" y="20" width="30.5" height="30.5"/>
                </g>
            </symbol>
            <symbol id="square">
                <rect x="-100" y="-100" width="200" height="200" fill="none" stroke="#ffa500" stroke-width="4px"/>
                <rect x="-20" y="-20" width="40" height="40" fill="blue" stroke="black" stroke-width="1.8px"/>
            </symbol>
        </defs>
        <!-- start positions -->
        <use xlink:href="#start"/>
        <use xlink:href="#start" transform="rotate(90 400 400)"/>
        <use xlink:href="#start" transform="rotate(180 400 400)"/>
        <use xlink:href="#start" transform="rotate(270 400 400)"/>
        <!-- squares -->
        <use xlink:href="#square" x="200" y="200"/>
        <use xlink:href="#square" x="400" y="200"/>
        <use xlink:href="#square" x="600" y="200"/>
        <use xlink:href="#square" x="200" y="400"/>
        <use xlink:href="#square" x="400" y="400"/>
        <use xlink:href="#square" x="600" y="400"/>
        <use xlink:href="#square" x="200" y="600"/>
        <use xlink:href="#square" x="400" y="600"/>
        <use xlink:href="#square" x="600" y="600"/>

        <g id="text" text-anchor="middle" font-weight="bold" font-size="28px" transform="translate(0, 14)">
            <text x="50" y="-65">1 m</text>
            <text x="-75" y="50">1 m</text>
            <text x="400" y="850">8 m</text>
            <text x="870" y="400">8 m</text>
            <text x="50" y="200">2 m</text>
            <text x="150" y="150">NW</text>
            <text x="400" y="150">N</text>
            <text x="650" y="150">NE</text>
            <text x="150" y="400">E</text>
            <text x="400" y="350">C</text>
            <text x="650" y="400">W</text>
            <text x="150" y="650">SW</text>
            <text x="400" y="650">S</text>
            <text x="650" y="650">SE</text>
        </g>
    </g>

    <!-- legend -->
    <g id="legend" transform="translate(1050 100)" text-anchor="middle" font-size="32px">
        <rect fill="none" stroke="black" stroke-width="5px" x="0" y="0" width="300" height="420"/>
        <g transform="translate(0, 16)">
            <text x="150" y="50" font-weight="bold" font-size="40px">Legend</text>
            <g transform="translate(150, 0)" text-anchor="left">
                <text y="150">Robot</text>
                <text y="220">Token</text>
                <text y="290">Square</text>
                <text y="360">Pedestal</text>
            </g>
            <rect x="50" y="115" width="50" height="50"
                  fill="red" stroke="#444" stroke-width="1.8px"/>
            <rect x="60" y="195" width="30" height="30"
                  fill="green" stroke="#444" stroke-width="3px"/>
            <rect x="50" y="255" width="50" height="50"
                  fill="none" stroke="#ffa500" stroke-width="4px"/>
            <rect x="55" y="330" width="40" height="40"
                  fill="blue" stroke="#444" stroke-width="3px"/>
        </g>
    </g>
</svg>

