<?xml version="1.0" standalone="no"?>
<!DOCTYPE svg PUBLIC "-//W3C/DTD SVG 1.1//EN"
  "http://www.w3.org/Graphics/SVG/1.1/DTD/svg11.dtd">
<svg version="1.1"
     baseProfile="full"
     width="1000" height="1000"
     xmlns="http://www.w3.org/2000/svg"
     xmlns:xlink="http://www.w3.org/1999/xlink">
  <style type="text/css">
    <![CDATA[
      .arena-wall {
          fill: none;
          stroke: #555;
          stroke-width: .02;
      }

      .token {
          stroke: black;
          stroke-width: 0.01;
          fill: silver;
      }

      #robot {
          fill: green;
          stroke: black;
          stroke-width: 0.02;
      }

      .inner-ring {
          fill: #ddd;
      }

      .zone {
          stroke: #333;
          stroke-width: 0.02;
          /*stroke-dasharray: 0.14142135, 0.14142135;*/
          stroke-dasharray: 0.08 0.08;
          stroke-dashoffset: -50%;
          fill: none;
      }

    ]]>
  </style>
  <!-- common patterns -->
  <defs>
    <rect x="-0.05" y="-0.05" width="0.10" height="0.10" id="token" />
    <rect width="0.35" height="0.5"
          x="-0.175" y="-0.25"
          id="robot"/>
    <g id="start-area">
      <g transform="translate(0.5 0.5) rotate(135)">
        <use xlink:href="#robot"/>
      </g>
      <!-- tokens -->
      <use xlink:href="#token" transform="translate(0.5 1.3)" class="token"/>
      <use xlink:href="#token" transform="translate(0.5 1.5)" class="token"/>
      <use xlink:href="#token" transform="translate(0.5 1.7)" class="token"/>
      <use xlink:href="#token" transform="translate(0.5 1.9)" class="token"/>
      <use xlink:href="#token" transform="translate(0.5 2.1)" class="token"/>
    </g>
    <g id="zone">
      <rect x="-0.6" y="-0.6" width="1.2" height="1.2" class="zone"/>
    </g>
  </defs>
  <!-- white background -->
  <rect width="100%" height="100%" fill="white"/>
  <!-- transform for arena-space coordinates -->
  <g id="arena"
     transform="translate(100 100) scale(100)">
    <!-- start areas -->
    <use xlink:href="#start-area"/>
    <use xlink:href="#start-area" transform="rotate(90 4 4)"/>
    <use xlink:href="#start-area" transform="rotate(180 4 4)"/>
    <use xlink:href="#start-area" transform="rotate(270 4 4)"/>
    <!-- arena wall -->
    <rect width="8"
          height="8"
          x="0"
          y="0"
          class="arena-wall"/>
    <!-- inner ring -->
    <path d="M2.2 2.2 v3.6 h3.6 v-3.6 h-3.6 l1.2 1.2 h1.2 v1.2 h-1.2 v-1.2" class="inner-ring"/>
    <!-- zones -->
    <g transform="translate(4 4)">
      <!-- pit -->
      <use xlink:href="#zone"/>
      <!-- inner ring -->
      <use xlink:href="#zone" transform="translate(-1.2 -1.2)"/>
      <use xlink:href="#zone" transform="translate(-1.2 0)"/>
      <use xlink:href="#zone" transform="translate(-1.2 1.2)"/>
      <use xlink:href="#zone" transform="translate(0 1.2)"/>
      <use xlink:href="#zone" transform="translate(1.2 1.2)"/>
      <use xlink:href="#zone" transform="translate(1.2 0)"/>
      <use xlink:href="#zone" transform="translate(1.2 -1.2)"/>
      <use xlink:href="#zone" transform="translate(0 -1.2)"/>
      <!-- outer ring -->
      <use xlink:href="#zone" transform="translate(0 -2.4)"/>
      <use xlink:href="#zone" transform="translate(1.2 -2.4)"/>
      <use xlink:href="#zone" transform="translate(2.4 -2.4)"/>
      <use xlink:href="#zone" transform="translate(2.4 -1.2)"/>
      <use xlink:href="#zone" transform="translate(2.4 0)"/>
      <use xlink:href="#zone" transform="translate(2.4 1.2)"/>
      <use xlink:href="#zone" transform="translate(2.4 2.4)"/>
      <use xlink:href="#zone" transform="translate(1.2 2.4)"/>
      <use xlink:href="#zone" transform="translate(0 2.4)"/>
      <use xlink:href="#zone" transform="translate(-1.2 2.4)"/>
      <use xlink:href="#zone" transform="translate(-2.4 2.4)"/>
      <use xlink:href="#zone" transform="translate(-2.4 1.2)"/>
      <use xlink:href="#zone" transform="translate(-2.4 0)"/>
      <use xlink:href="#zone" transform="translate(-2.4 -1.2)"/>
      <use xlink:href="#zone" transform="translate(-2.4 -2.4)"/>
      <use xlink:href="#zone" transform="translate(-1.2 -2.4)"/>
    </g>
  </g>
</svg>
