<?xml version="1.0" encoding="UTF-8" standalone="no"?>
<!-- Created with Inkscape (http://www.inkscape.org/) -->

<svg
   xmlns:dc="http://purl.org/dc/elements/1.1/"
   xmlns:cc="http://creativecommons.org/ns#"
   xmlns:rdf="http://www.w3.org/1999/02/22-rdf-syntax-ns#"
   xmlns:svg="http://www.w3.org/2000/svg"
   xmlns="http://www.w3.org/2000/svg"
   xmlns:sodipodi="http://sodipodi.sourceforge.net/DTD/sodipodi-0.dtd"
   xmlns:inkscape="http://www.inkscape.org/namespaces/inkscape"
   sodipodi:docname="bucket-3d.svg"
   inkscape:version="0.48.1 r9760"
   version="1.1"
   id="svg2"
   height="211.16199"
   width="252.22015">
  <defs
     id="defs4">
    <marker
       inkscape:stockid="Arrow1Mend"
       orient="auto"
       refY="0"
       refX="0"
       id="Arrow1Mend"
       style="overflow:visible">
      <path
         id="path3884"
         d="M 0,0 5,-5 -12.5,0 5,5 0,0 z"
         style="fill-rule:evenodd;stroke:#000000;stroke-width:1pt;marker-start:none"
         transform="matrix(-0.4,0,0,-0.4,-4,0)"
         inkscape:connector-curvature="0" />
    </marker>
    <marker
       inkscape:stockid="Arrow1Mstart"
       orient="auto"
       refY="0"
       refX="0"
       id="Arrow1Mstart"
       style="overflow:visible">
      <path
         id="path3881"
         d="M 0,0 5,-5 -12.5,0 5,5 0,0 z"
         style="fill-rule:evenodd;stroke:#000000;stroke-width:1pt;marker-start:none"
         transform="matrix(0.4,0,0,0.4,4,0)"
         inkscape:connector-curvature="0" />
    </marker>
    <marker
       inkscape:stockid="Arrow1Lstart"
       orient="auto"
       refY="0"
       refX="0"
       id="Arrow1Lstart"
       style="overflow:visible">
      <path
         id="path3875"
         d="M 0,0 5,-5 -12.5,0 5,5 0,0 z"
         style="fill-rule:evenodd;stroke:#000000;stroke-width:1pt;marker-start:none"
         transform="matrix(0.8,0,0,0.8,10,0)"
         inkscape:connector-curvature="0" />
    </marker>
    <inkscape:perspective
       sodipodi:type="inkscape:persp3d"
       inkscape:vp_x="0 : 526.18109 : 1"
       inkscape:vp_y="0 : 1000 : 0"
       inkscape:vp_z="744.09448 : 526.18109 : 1"
       inkscape:persp3d-origin="372.04724 : 350.78739 : 1"
       id="perspective2987" />
  </defs>
  <sodipodi:namedview
     id="base"
     pagecolor="#ffffff"
     bordercolor="#666666"
     borderopacity="1.0"
     inkscape:pageopacity="0.0"
     inkscape:pageshadow="2"
     inkscape:zoom="3.959798"
     inkscape:cx="144.89403"
     inkscape:cy="62.372707"
     inkscape:document-units="px"
     inkscape:current-layer="layer1"
     showgrid="false"
     showguides="false"
     inkscape:guide-bbox="true"
     inkscape:window-width="2048"
     inkscape:window-height="1099"
     inkscape:window-x="1280"
     inkscape:window-y="0"
     inkscape:window-maximized="1"
     fit-margin-top="0"
     fit-margin-left="0"
     fit-margin-right="0"
     fit-margin-bottom="0">
    <sodipodi:guide
       orientation="1,0"
       position="-70.022718,94.497668"
       id="guide3003" />
    <sodipodi:guide
       orientation="1,0"
       position="521.92668,6.614398"
       id="guide3005" />
    <sodipodi:guide
       orientation="0,1"
       position="231.00275,176.32003"
       id="guide3007" />
    <sodipodi:guide
       orientation="-0.39816772,0.91731263"
       position="127.46211,5.099168"
       id="guide3021" />
    <sodipodi:guide
       orientation="-0.65507767,-0.75556154"
       position="127.46211,5.099168"
       id="guide3027" />
    <sodipodi:guide
       orientation="1,0"
       position="245.59373,106.6176"
       id="guide3029" />
    <sodipodi:guide
       orientation="1,0"
       position="71.654564,132.25963"
       id="guide3031" />
    <sodipodi:guide
       orientation="-0.15657583,0.98766594"
       position="71.654564,104.93787"
       id="guide3033" />
    <sodipodi:guide
       orientation="-0.21564905,-0.97647093"
       position="245.59373,106.61761"
       id="guide3035" />
    <sodipodi:guide
       orientation="-0.16065863,0.98701003"
       position="79.239374,104.26247"
       id="guide3066" />
    <sodipodi:guide
       orientation="-0.22250335,-0.97493193"
       position="235.05909,106.85433"
       id="guide3068" />
    <sodipodi:guide
       orientation="-0.35543232,-0.93470202"
       position="245.59373,56.375248"
       id="guide3076" />
    <sodipodi:guide
       orientation="0,1"
       position="71.654564,104.93787"
       id="guide3856" />
    <sodipodi:guide
       orientation="1,0"
       position="62.938614,74.547158"
       id="guide3860" />
    <sodipodi:guide
       orientation="-0.41319683,0.91064174"
       position="133.34094,0.0021779971"
       id="guide3864" />
    <sodipodi:guide
       orientation="0,1"
       position="66.221604,103.02083"
       id="guide4694" />
    <sodipodi:guide
       orientation="0,1"
       position="120.44921,2.929268"
       id="guide4696" />
    <sodipodi:guide
       orientation="0,1"
       position="134.07545,0.79023799"
       id="guide4698" />
    <sodipodi:guide
       orientation="1,0"
       position="169.64249,37.501913"
       id="guide3997" />
    <sodipodi:guide
       orientation="1,0"
       position="198.49497,71.468292"
       id="guide3999" />
    <sodipodi:guide
       orientation="1,0"
       position="106.07143,59.821428"
       id="guide5850" />
    <sodipodi:guide
       orientation="1,0"
       position="87.321428,71.964285"
       id="guide5852" />
    <sodipodi:guide
       orientation="-0.60193317,-0.79854646"
       position="107.07617,42.678945"
       id="guide5854" />
    <sodipodi:guide
       orientation="-0.51273446,-0.85854725"
       position="107.07617,70.205601"
       id="guide5856" />
  </sodipodi:namedview>
  <metadata
     id="metadata7">
    <rdf:RDF>
      <cc:Work
         rdf:about="">
        <dc:format>image/svg+xml</dc:format>
        <dc:type
           rdf:resource="http://purl.org/dc/dcmitype/StillImage" />
        <dc:title />
      </cc:Work>
    </rdf:RDF>
  </metadata>
  <g
     inkscape:label="Layer 1"
     inkscape:groupmode="layer"
     id="layer1"
     transform="translate(-144.774,-201.31696)">
    <path
       style="fill:#eaeaea;fill-opacity:1;stroke:#000000;stroke-width:1px;stroke-linecap:butt;stroke-linejoin:bevel;stroke-opacity:1"
       d="m 272.14286,335.21932 0,72.85715"
       id="path3019"
       inkscape:connector-curvature="0" />
    <path
       style="fill:#f0f0f0;fill-opacity:1;stroke:#000000;stroke-width:1px;stroke-linecap:butt;stroke-linejoin:bevel;stroke-opacity:1"
       d="m 224.01337,308.21648 48.47528,23.40186 49.10523,-11.89095 0,-27.39438 z"
       id="path3080"
       inkscape:connector-curvature="0" />
    <path
       style="fill:#eaeaea;fill-opacity:1;stroke:#000000;stroke-width:1px;stroke-linecap:butt;stroke-linejoin:bevel;stroke-opacity:1"
       d="m 216.42857,358.99422 55.80754,48.38556 0,-71.72083 -55.80754,-28.11786 z"
       id="path3039"
       inkscape:connector-curvature="0" />
    <path
       style="fill:#eaeaea;fill-opacity:1;stroke:#000000;stroke-width:1px;stroke-linecap:butt;stroke-linejoin:bevel;stroke-opacity:1"
       d="m 216.42857,307.54109 105.68233,-16.75395 68.25683,15.0742 -118.13162,29.79761 z"
       id="path3041"
       inkscape:connector-curvature="0" />
    <path
       style="fill:#eaeaea;fill-opacity:1;stroke:#000000;stroke-width:1px;stroke-linecap:butt;stroke-linejoin:bevel;stroke-opacity:1"
       d="m 224.01337,308.21648 48.47528,23.40186 107.34443,-25.99372 -58.2392,-13.29161 z"
       id="path3070"
       inkscape:connector-curvature="0" />
    <path
       style="fill:#ecbb62;fill-opacity:1;stroke:#000000;stroke-width:1px;stroke-linecap:butt;stroke-linejoin:miter;stroke-opacity:1"
       d="m 298.21429,325.38882 0,-122.6695 5.71428,0 0,121.28577 z"
       id="path3850"
       inkscape:connector-curvature="0"
       sodipodi:nodetypes="cccc" />
    <path
       style="fill:#d1d1d1;fill-opacity:1;stroke:#000000;stroke-width:1px;stroke-linecap:butt;stroke-linejoin:bevel;stroke-opacity:1"
       d="m 321.59388,292.33301 0,27.39438 58.2392,-14.10277 -58.2392,-13.29161"
       id="path3078"
       inkscape:connector-curvature="0" />
    <path
       style="fill:#eaeaea;fill-opacity:1;stroke:#000000;stroke-width:1px;stroke-linecap:butt;stroke-linejoin:bevel;stroke-opacity:1"
       d="m 272.23611,407.37978 118.13162,-51.27608 0,-50.24235 -118.13162,29.7976"
       id="path3037"
       inkscape:connector-curvature="0" />
    <path
       sodipodi:type="arc"
       style="fill:#ecbb62;fill-opacity:1;stroke:#000000;stroke-width:1;stroke-linejoin:bevel;stroke-miterlimit:4;stroke-opacity:1;stroke-dasharray:none;stroke-dashoffset:0"
       id="path3854"
       sodipodi:cx="301.5625"
       sodipodi:cy="203.34433"
       sodipodi:rx="2.9017856"
       sodipodi:ry="0.8035714"
       d="m 304.46429,203.34433 c 0,0.4438 -1.29918,0.80357 -2.90179,0.80357 -1.60261,0 -2.90179,-0.35977 -2.90179,-0.80357 0,-0.4438 1.29918,-0.80357 2.90179,-0.80357 1.60261,0 2.90179,0.35977 2.90179,0.80357 z"
       transform="translate(-0.53571429,-0.71428572)" />
    <path
       style="fill:none;stroke:#000000;stroke-width:1px;stroke-linecap:butt;stroke-linejoin:miter;stroke-opacity:1;marker-start:url(#Arrow1Mstart);marker-end:url(#Arrow1Mend)"
       d="m 207.71262,357.13896 0,-47.68084"
       id="path3862"
       inkscape:connector-curvature="0"
       sodipodi:nodetypes="cc" />
    <path
       style="fill:none;stroke:#000000;stroke-width:1px;stroke-linecap:butt;stroke-linejoin:miter;stroke-opacity:1;marker-start:url(#Arrow1Mstart);marker-end:url(#Arrow1Mend)"
       d="M 279.85174,411.68871 395.25255,359.32646"
       id="path3866"
       inkscape:connector-curvature="0"
       sodipodi:nodetypes="cc" />
    <path
       style="fill:none;stroke:#000000;stroke-width:1px;stroke-linecap:butt;stroke-linejoin:miter;stroke-opacity:1;marker-start:url(#Arrow1Mstart);marker-end:url(#Arrow1Mend)"
       d="M 262.62703,409.54968 211.39561,362.08944"
       id="path3870"
       inkscape:connector-curvature="0"
       sodipodi:nodetypes="cc" />
    <text
       xml:space="preserve"
       style="font-size:14px;font-style:normal;font-variant:normal;font-weight:500;font-stretch:normal;line-height:125%;letter-spacing:0px;word-spacing:0px;fill:#000000;fill-opacity:1;stroke:none;font-family:CMU Sans Serif;-inkscape-font-specification:CMU Sans Serif Medium"
       x="342.44171"
       y="396.77316"
       id="text4702"
       sodipodi:linespacing="125%"><tspan
         sodipodi:role="line"
         id="tspan4704"
         x="342.44171"
         y="396.77316">372 mm</tspan></text>
    <text
       xml:space="preserve"
       style="font-size:14px;font-style:normal;font-variant:normal;font-weight:500;font-stretch:normal;line-height:125%;letter-spacing:0px;word-spacing:0px;fill:#000000;fill-opacity:1;stroke:none;font-family:CMU Sans Serif;-inkscape-font-specification:CMU Sans Serif Medium"
       x="175.09721"
       y="393.08972"
       id="text4706"
       sodipodi:linespacing="125%"><tspan
         sodipodi:role="line"
         id="tspan4708"
         x="175.09721"
         y="393.08972">245 mm</tspan></text>
    <text
       xml:space="preserve"
       style="font-size:14px;font-style:normal;font-variant:normal;font-weight:500;font-stretch:normal;line-height:125%;letter-spacing:0px;word-spacing:0px;fill:#000000;fill-opacity:1;stroke:none;font-family:CMU Sans Serif;-inkscape-font-specification:CMU Sans Serif Medium"
       x="144.578"
       y="336.12811"
       id="text4710"
       sodipodi:linespacing="125%"><tspan
         sodipodi:role="line"
         id="tspan4712"
         x="144.578"
         y="336.12811">185 mm</tspan></text>
    <g
       id="g5846">
      <path
         inkscape:export-ydpi="603.14001"
         inkscape:export-xdpi="603.14001"
         transform="translate(144.774,201.31696)"
         inkscape:connector-curvature="0"
         id="path4017"
         d="m 169.64249,171.11734 0,-33.82276 28.85248,-8.38849 0,31.09624 z"
         style="fill:#ffffff;stroke:none;stroke-width:1px;stroke-linecap:butt;stroke-linejoin:miter;stroke-opacity:1;fill-opacity:1" />
      <path
         style="fill:#000000;fill-opacity:1;stroke:none"
         d="m 316.41214,355.00756 0.002,-14.31774 11.71376,-3.46561 c 6.44256,-1.90608 12.0362,-3.56158 12.4303,-3.67888 l 0.71654,-0.21327 -0.0385,13.35036 -0.0385,13.35035 -8.58883,3.21911 c -4.72384,1.77051 -10.30093,3.86133 -12.39351,4.64627 l -3.8047,1.42715 0.002,-14.31774 z m 10.54952,4.91302 4.74292,-1.70373 0.0409,-2.75713 0.041,-2.75712 1.12683,-0.37444 1.12683,-0.37443 0,2.67032 0,2.67033 0.18835,-0.009 c 0.10359,-0.005 0.663,-0.19247 1.24312,-0.41628 l 1.05477,-0.40691 0.0411,-2.80271 0.0411,-2.80272 -0.26708,0.10697 c -0.58208,0.23313 -1.90364,0.67206 -2.0235,0.67206 l -0.1271,0 0,-1.25472 0,-1.25472 1.20506,-0.42062 1.20505,-0.42064 4.6e-4,-1.43027 4.5e-4,-1.43028 -1.09244,0.38784 c -0.60084,0.2133 -1.17719,0.44206 -1.28079,0.50832 l -0.18835,0.12048 0,1.31803 0,1.31803 -1.13011,0.37553 -1.1301,0.37552 0,-1.33004 0,-1.33005 -0.20244,0 c -0.11134,0 -0.59659,0.13403 -1.07835,0.29784 -0.48176,0.16381 -0.96702,0.29784 -1.07836,0.29784 l -0.20255,0 0,-1.26101 0,-1.261 1.28079,-0.39466 1.28078,-0.39467 0,-1.39718 0,-1.39719 -0.19667,0 c -0.10817,0 -0.66757,0.15684 -1.24311,0.34853 l -1.04645,0.34853 -0.0429,1.41564 -0.0428,1.41563 -1.23794,0.37785 -1.23794,0.37784 -0.0409,2.84681 c -0.0225,1.56574 -0.0185,2.84679 0.009,2.84679 0.0274,0 0.60519,-0.20033 1.28404,-0.44519 l 1.23429,-0.4452 0,2.73168 0,2.73168 -2.40109,0.84083 c -1.3206,0.46245 -2.4394,0.84082 -2.48624,0.84082 l -0.0851,0 0,-2.76505 0,-2.76504 -0.31406,0.0985 c -0.17274,0.0542 -0.76604,0.24916 -1.31846,0.43329 l -1.00439,0.33479 -0.04,4.28443 -0.04,4.28443 0.3449,-0.0856 c 0.1897,-0.0471 2.47922,-0.85223 5.08782,-1.78928 z m -2.7158,-13.12629 0,-2.87857 -1.24312,0.37605 c -0.68371,0.20682 -1.29396,0.40639 -1.35611,0.44348 l -0.11302,0.0674 0,2.88459 0,2.88459 1.35613,-0.44951 1.35613,-0.4495 0,-2.87857 z m 11.23634,-3.5356 1.11669,-0.33507 0.001,-1.43615 10e-4,-1.43615 -1.15364,0.36206 c -0.6345,0.19914 -1.21085,0.39702 -1.28079,0.43973 l -0.12704,0.0777 0,1.33149 0,1.33149 0.16268,0 c 0.0895,0 0.66519,-0.15078 1.27938,-0.33507 z"
         id="path5837"
         inkscape:connector-curvature="0" />
    </g>
    <path
       style="fill:#ffffff;stroke:none;stroke-width:1px;stroke-linecap:butt;stroke-linejoin:miter;stroke-opacity:1;fill-opacity:1"
       d="m 106.07143,140.35634 -18.750002,-11.19772 0,24.43357 18.750002,14.13349 z"
       id="path5858"
       inkscape:connector-curvature="0"
       transform="translate(144.774,201.31696)"
       inkscape:export-filename="/home/rob/sr/dev/rules/images/shape.png"
       inkscape:export-xdpi="911.39001"
       inkscape:export-ydpi="911.39001" />
    <path
       inkscape:connector-curvature="0"
       id="path6018"
       d="m 241.36024,359.41915 -7.28692,-5.39596 0,-9.66703 0,-9.66702 0.21521,0.11498 c 0.11837,0.0632 3.44611,2.09253 7.395,4.50952 l 7.17978,4.39459 0.004,4.89547 c 0.003,2.69252 -0.0228,7.4447 -0.0556,10.56043 l -0.0595,5.66494 -0.0526,-0.007 c -0.0289,-0.004 -3.33167,-2.43517 -7.33948,-5.40294 z m 4.35087,-4.11911 -0.0236,-3.16141 -1.50223,-1.01171 -1.50222,-1.0117 -0.001,-1.99275 -0.001,-1.99275 -0.0679,-0.10685 c -0.0374,-0.0588 -0.71276,-0.52815 -1.50086,-1.04307 l -1.43291,-0.93621 -0.0659,0.10137 -0.0659,0.10137 -0.001,1.82202 -0.001,1.82202 0.0923,0.17253 0.0923,0.17253 0.66881,0.45131 0.66881,0.45131 0.0236,3.06978 0.0236,3.06977 2.19728,1.5851 c 1.20851,0.87181 2.24825,1.58817 2.31054,1.59191 l 0.11326,0.007 -0.0235,-3.1614 z m -2.3778,-0.61266 -0.65022,-0.45373 0,-0.93541 0,-0.9354 0.0518,0 c 0.0284,0 0.33096,0.19171 0.67218,0.426 l 0.62041,0.42601 3.4e-4,0.96411 c 2.7e-4,0.53027 -0.01,0.96369 -0.0219,0.96313 -0.0123,-6.6e-4 -0.31502,-0.20516 -0.67264,-0.45472 z m -3.69951,-2.58137 0,-2.05054 -0.68962,-0.45544 -0.68962,-0.45545 -0.0727,0.045 -0.0727,0.0449 0.001,1.81084 c 6.6e-4,0.99594 0.0235,1.89154 0.0506,1.9902 l 0.0494,0.17937 0.64443,0.46669 c 0.35444,0.25667 0.6747,0.46855 0.7117,0.47084 l 0.0673,0.004 0,-2.05055 z m 6.09859,-5.12628 0,-1.07824 -0.76204,-0.49672 -0.76205,-0.49673 -0.09,0.0556 -0.09,0.0556 0.001,0.91398 0.001,0.91397 0.0742,0.11704 c 0.0793,0.12503 1.44692,1.07927 1.55978,1.08832 l 0.0673,0.005 0,-1.07824 z m -7.53471,-1.85897 -0.001,-2.04034 -0.65487,-0.426 c -0.36018,-0.2343 -0.68252,-0.42599 -0.71632,-0.42599 l -0.0615,0 0,2.00569 0,2.0057 0.69506,0.45997 c 0.38228,0.25299 0.70515,0.46029 0.71748,0.46065 0.0123,3.4e-4 0.0219,-0.9175 0.0212,-2.03968 z"
       style="fill:#000000;fill-opacity:1" />
  </g>
</svg>
