<?xml version="1.0" encoding="UTF-8" standalone="no"?>
<!-- Created with Inkscape (http://www.inkscape.org/) -->

<svg
   xmlns:dc="http://purl.org/dc/elements/1.1/"
   xmlns:cc="http://creativecommons.org/ns#"
   xmlns:rdf="http://www.w3.org/1999/02/22-rdf-syntax-ns#"
   xmlns:svg="http://www.w3.org/2000/svg"
   xmlns="http://www.w3.org/2000/svg"
   xmlns:sodipodi="http://sodipodi.sourceforge.net/DTD/sodipodi-0.dtd"
   xmlns:inkscape="http://www.inkscape.org/namespaces/inkscape"
   width="389.65863"
   height="183.30891"
   id="svg2"
   version="1.1"
   inkscape:version="0.48.1 r9760"
   sodipodi:docname="robot-marker.svg">
  <defs
     id="defs4">
    <marker
       inkscape:stockid="Arrow1Mend"
       orient="auto"
       refY="0"
       refX="0"
       id="Arrow1Mend"
       style="overflow:visible">
      <path
         id="path3796"
         d="M 0,0 5,-5 -12.5,0 5,5 0,0 z"
         style="fill-rule:evenodd;stroke:#000000;stroke-width:1pt;marker-start:none"
         transform="matrix(-0.4,0,0,-0.4,-4,0)"
         inkscape:connector-curvature="0" />
    </marker>
    <marker
       inkscape:stockid="Arrow1Mstart"
       orient="auto"
       refY="0"
       refX="0"
       id="Arrow1Mstart"
       style="overflow:visible">
      <path
         id="path3793"
         d="M 0,0 5,-5 -12.5,0 5,5 0,0 z"
         style="fill-rule:evenodd;stroke:#000000;stroke-width:1pt;marker-start:none"
         transform="matrix(0.4,0,0,0.4,4,0)"
         inkscape:connector-curvature="0" />
    </marker>
  </defs>
  <sodipodi:namedview
     id="base"
     pagecolor="#ffffff"
     bordercolor="#666666"
     borderopacity="1.0"
     inkscape:pageopacity="0.0"
     inkscape:pageshadow="2"
     inkscape:zoom="5.6"
     inkscape:cx="236.96393"
     inkscape:cy="93.131797"
     inkscape:document-units="px"
     inkscape:current-layer="layer1"
     showgrid="true"
     inkscape:window-width="2048"
     inkscape:window-height="1099"
     inkscape:window-x="1280"
     inkscape:window-y="0"
     inkscape:window-maximized="1"
     fit-margin-top="0"
     fit-margin-left="0"
     fit-margin-right="0"
     fit-margin-bottom="0"
     showguides="false"
     inkscape:guide-bbox="true">
    <inkscape:grid
       type="xygrid"
       id="grid3776"
       empspacing="5"
       visible="true"
       enabled="false"
       snapvisiblegridlinesonly="true" />
    <sodipodi:guide
       orientation="1,0"
       position="63.408645,147.05892"
       id="guide3778" />
  </sodipodi:namedview>
  <metadata
     id="metadata7">
    <rdf:RDF>
      <cc:Work
         rdf:about="">
        <dc:format>image/svg+xml</dc:format>
        <dc:type
           rdf:resource="http://purl.org/dc/dcmitype/StillImage" />
        <dc:title />
      </cc:Work>
    </rdf:RDF>
  </metadata>
  <g
     inkscape:label="Layer 1"
     inkscape:groupmode="layer"
     id="layer1"
     transform="translate(-85.337585,-90.969849)">
    <g
       id="g3872"
       transform="translate(-1.0791016e-6,7.6293945e-6)">
      <rect
         y="92.219841"
         x="173.74623"
         height="150"
         width="300"
         id="rect3059"
         style="fill:#000fff;fill-opacity:1;fill-rule:nonzero;stroke:none" />
      <path
         d="m 249.00988,92.483481 149.4727,0 0,149.472719 -149.4727,0 0,-149.472719 z"
         style="fill:#ffffff;fill-opacity:1;stroke:#b3b3b3;stroke-width:0.52730572;stroke-linecap:butt;stroke-linejoin:miter;stroke-miterlimit:10;stroke-opacity:1;stroke-dasharray:none"
         id="path158"
         inkscape:connector-curvature="0" />
      <path
         d="m 261.46748,104.94108 124.55961,0 0,124.55963 -124.55961,0 0,-124.55963 z"
         style="fill:#000000;fill-opacity:1;fill-rule:nonzero;stroke:none"
         id="path160"
         inkscape:connector-curvature="0" />
      <path
         d="m 286.37846,129.85205 74.73504,0 0,74.73504 -74.73504,0 0,-74.73504 z"
         style="fill:#ffffff;fill-opacity:1;fill-rule:nonzero;stroke:none"
         id="path162"
         inkscape:connector-curvature="0" />
      <path
         d="m 286.37846,129.85205 12.45548,0 0,12.45549 -12.45548,0 0,-12.45549 z"
         style="fill:#000000;fill-opacity:1;fill-rule:nonzero;stroke:none"
         id="path164"
         inkscape:connector-curvature="0" />
      <path
         d="m 298.83394,129.85205 12.45549,0 0,12.45549 -12.45549,0 0,-12.45549 z"
         style="fill:#000000;fill-opacity:1;fill-rule:nonzero;stroke:none"
         id="path166"
         inkscape:connector-curvature="0" />
      <path
         d="m 336.20252,129.85205 12.45549,0 0,12.45549 -12.45549,0 0,-12.45549 z"
         style="fill:#000000;fill-opacity:1;fill-rule:nonzero;stroke:none"
         id="path168"
         inkscape:connector-curvature="0" />
      <path
         d="m 298.83394,142.30754 12.45549,0 0,12.45549 -12.45549,0 0,-12.45549 z"
         style="fill:#000000;fill-opacity:1;fill-rule:nonzero;stroke:none"
         id="path170"
         inkscape:connector-curvature="0" />
      <path
         d="m 336.20252,142.30754 12.45549,0 0,12.45549 -12.45549,0 0,-12.45549 z"
         style="fill:#000000;fill-opacity:1;fill-rule:nonzero;stroke:none"
         id="path172"
         inkscape:connector-curvature="0" />
      <path
         d="m 286.37846,154.76303 12.45548,0 0,12.45549 -12.45548,0 0,-12.45549 z"
         style="fill:#000000;fill-opacity:1;fill-rule:nonzero;stroke:none"
         id="path174"
         inkscape:connector-curvature="0" />
      <path
         d="m 298.83394,154.76303 12.45549,0 0,12.45549 -12.45549,0 0,-12.45549 z"
         style="fill:#000000;fill-opacity:1;fill-rule:nonzero;stroke:none"
         id="path176"
         inkscape:connector-curvature="0" />
      <path
         d="m 311.28943,154.76303 12.45549,0 0,12.45549 -12.45549,0 0,-12.45549 z"
         style="fill:#000000;fill-opacity:1;fill-rule:nonzero;stroke:none"
         id="path178"
         inkscape:connector-curvature="0" />
      <path
         d="m 323.74703,154.76303 12.45549,0 0,12.45549 -12.45549,0 0,-12.45549 z"
         style="fill:#000000;fill-opacity:1;fill-rule:nonzero;stroke:none"
         id="path180"
         inkscape:connector-curvature="0" />
      <path
         d="m 336.20252,154.76303 12.45549,0 0,12.45549 -12.45549,0 0,-12.45549 z"
         style="fill:#000000;fill-opacity:1;fill-rule:nonzero;stroke:none"
         id="path182"
         inkscape:connector-curvature="0" />
      <path
         d="m 323.74703,167.22063 12.45549,0 0,12.45549 -12.45549,0 0,-12.45549 z"
         style="fill:#000000;fill-opacity:1;fill-rule:nonzero;stroke:none"
         id="path184"
         inkscape:connector-curvature="0" />
      <path
         d="m 348.65801,167.22063 12.45549,0 0,12.45549 -12.45549,0 0,-12.45549 z"
         style="fill:#000000;fill-opacity:1;fill-rule:nonzero;stroke:none"
         id="path186"
         inkscape:connector-curvature="0" />
      <path
         d="m 286.37846,179.67612 12.45548,0 0,12.45549 -12.45548,0 0,-12.45549 z"
         style="fill:#000000;fill-opacity:1;fill-rule:nonzero;stroke:none"
         id="path188"
         inkscape:connector-curvature="0" />
      <path
         d="m 298.83394,179.67612 12.45549,0 0,12.45549 -12.45549,0 0,-12.45549 z"
         style="fill:#000000;fill-opacity:1;fill-rule:nonzero;stroke:none"
         id="path190"
         inkscape:connector-curvature="0" />
      <path
         d="m 323.74703,179.67612 12.45549,0 0,12.45549 -12.45549,0 0,-12.45549 z"
         style="fill:#000000;fill-opacity:1;fill-rule:nonzero;stroke:none"
         id="path192"
         inkscape:connector-curvature="0" />
      <path
         d="m 336.20252,179.67612 12.45549,0 0,12.45549 -12.45549,0 0,-12.45549 z"
         style="fill:#000000;fill-opacity:1;fill-rule:nonzero;stroke:none"
         id="path194"
         inkscape:connector-curvature="0" />
      <path
         d="m 311.28943,192.13213 12.45549,0 0,12.45549 -12.45549,0 0,-12.45549 z"
         style="fill:#000000;fill-opacity:1;fill-rule:nonzero;stroke:none"
         id="path196"
         inkscape:connector-curvature="0" />
      <path
         d="m 336.20252,192.13213 12.45549,0 0,12.45549 -12.45549,0 0,-12.45549 z"
         style="fill:#000000;fill-opacity:1;fill-rule:nonzero;stroke:none"
         id="path198"
         inkscape:connector-curvature="0" />
      <text
         style="font-size:6.32766867px"
         y="226.33672"
         x="264.63113"
         id="text200">
        <tspan
           style="font-size:3.16383433px;font-variant:normal;font-weight:normal;writing-mode:lr-tb;fill:#808080;fill-opacity:1;fill-rule:nonzero;stroke:none;font-family:DejaVu Sans;-inkscape-font-specification:DejaVuSans"
           x="264.63113 265.50754 266.38394 268.38977 270.22165 272.15475 273.9866 274.86298 275.86594 278.94751 280.88379 282.18411 284.01596 285.96173 287.26208 288.26498 290.91315 292.92532 294.93753 295.94046 297.17435 299.04419 301.05637 302.05933 304.07153 305.30542 308.31424 309.18112 311.3768 313.86673 316.03714 318.52707 320.457"
           y="226.33672"
           sodipodi:role="line"
           id="tspan202">libkoki marker #28 (v0.5) 'ROBOT'</tspan>
      </text>
      <path
         d="m 275.4801,117.39657 c 0,2.07653 -3.11427,2.07653 -3.11427,0 0,-2.07601 3.11427,-2.07601 3.11427,0"
         style="fill:#333333;fill-opacity:1;fill-rule:nonzero;stroke:none"
         id="path204"
         inkscape:connector-curvature="0"
         sodipodi:nodetypes="csc" />
    </g>
    <path
       style="fill:none;stroke:#000000;stroke-width:1px;stroke-linecap:butt;stroke-linejoin:miter;stroke-opacity:1;marker-start:url(#Arrow1Mstart);marker-end:url(#Arrow1Mend)"
       d="m 0,160.0011 300,0"
       id="path3780"
       inkscape:connector-curvature="0"
       transform="translate(173.74623,92.21875)" />
    <path
       style="fill:none;stroke:#000000;stroke-width:1px;stroke-linecap:butt;stroke-linejoin:miter;stroke-opacity:1;marker-start:url(#Arrow1Mstart);marker-end:url(#Arrow1Mend)"
       d="M -10,150.0011 -10,0.00109863"
       id="path3782"
       inkscape:connector-curvature="0"
       transform="translate(173.74623,92.21875)" />
    <text
       xml:space="preserve"
       style="font-size:20px;font-style:normal;font-variant:normal;font-weight:500;font-stretch:normal;line-height:125%;letter-spacing:0px;word-spacing:0px;fill:#000000;fill-opacity:1;stroke:none;font-family:Century Schoolbook L;-inkscape-font-specification:Century Schoolbook L Medium"
       x="289.13028"
       y="273.97876"
       id="text4414"
       sodipodi:linespacing="125%"><tspan
         sodipodi:role="line"
         id="tspan4416"
         x="289.13028"
         y="273.97876">200mm</tspan></text>
    <text
       xml:space="preserve"
       style="font-size:20px;font-style:normal;font-variant:normal;font-weight:500;font-stretch:normal;line-height:125%;letter-spacing:0px;word-spacing:0px;fill:#000000;fill-opacity:1;stroke:none;font-family:Century Schoolbook L;-inkscape-font-specification:Century Schoolbook L Medium"
       x="83.337585"
       y="174.10985"
       id="text4418"
       sodipodi:linespacing="125%"><tspan
         sodipodi:role="line"
         id="tspan4420"
         x="83.337585"
         y="174.10985">100mm</tspan></text>
  </g>
</svg>
