<?xml version="1.0" encoding="UTF-8" standalone="no"?>
<!-- Created with Inkscape (http://www.inkscape.org/) -->

<svg
   xmlns:dc="http://purl.org/dc/elements/1.1/"
   xmlns:cc="http://creativecommons.org/ns#"
   xmlns:rdf="http://www.w3.org/1999/02/22-rdf-syntax-ns#"
   xmlns:svg="http://www.w3.org/2000/svg"
   xmlns="http://www.w3.org/2000/svg"
   xmlns:sodipodi="http://sodipodi.sourceforge.net/DTD/sodipodi-0.dtd"
   xmlns:inkscape="http://www.inkscape.org/namespaces/inkscape"
   width="814.96063"
   height="460.62991"
   id="svg2"
   version="1.1"
   inkscape:version="0.48.3.1 r9886"
   sodipodi:docname="robot-marker.svg">
  <defs
     id="defs4">
    <marker
       inkscape:stockid="Arrow1Mend"
       orient="auto"
       refY="0"
       refX="0"
       id="Arrow1Mend"
       style="overflow:visible">
      <path
         id="path3796"
         d="M 0,0 5,-5 -12.5,0 5,5 0,0 z"
         style="fill-rule:evenodd;stroke:#000000;stroke-width:1pt;marker-start:none"
         transform="matrix(-0.4,0,0,-0.4,-4,0)"
         inkscape:connector-curvature="0" />
    </marker>
    <marker
       inkscape:stockid="Arrow1Mstart"
       orient="auto"
       refY="0"
       refX="0"
       id="Arrow1Mstart"
       style="overflow:visible">
      <path
         id="path3793"
         d="M 0,0 5,-5 -12.5,0 5,5 0,0 z"
         style="fill-rule:evenodd;stroke:#000000;stroke-width:1pt;marker-start:none"
         transform="matrix(0.4,0,0,0.4,4,0)"
         inkscape:connector-curvature="0" />
    </marker>
    <marker
       inkscape:stockid="Arrow1Lstart"
       orient="auto"
       refY="0"
       refX="0"
       id="Arrow1Lstart"
       style="overflow:visible">
      <path
         id="path4180"
         d="M 0,0 5,-5 -12.5,0 5,5 0,0 z"
         style="fill-rule:evenodd;stroke:#000000;stroke-width:1pt"
         transform="matrix(0.8,0,0,0.8,10,0)"
         inkscape:connector-curvature="0" />
    </marker>
    <marker
       inkscape:stockid="Arrow1Lend"
       orient="auto"
       refY="0"
       refX="0"
       id="Arrow1Lend"
       style="overflow:visible">
      <path
         id="path4183"
         d="M 0,0 5,-5 -12.5,0 5,5 0,0 z"
         style="fill-rule:evenodd;stroke:#000000;stroke-width:1pt"
         transform="matrix(-0.8,0,0,-0.8,-10,0)"
         inkscape:connector-curvature="0" />
    </marker>
    <marker
       inkscape:stockid="Arrow1Lstart"
       orient="auto"
       refY="0"
       refX="0"
       id="Arrow1Lstart-3"
       style="overflow:visible">
      <path
         id="path4180-3"
         d="M 0,0 5,-5 -12.5,0 5,5 0,0 z"
         style="fill-rule:evenodd;stroke:#000000;stroke-width:1pt"
         transform="matrix(0.8,0,0,0.8,10,0)"
         inkscape:connector-curvature="0" />
    </marker>
    <marker
       inkscape:stockid="Arrow1Lend"
       orient="auto"
       refY="0"
       refX="0"
       id="Arrow1Lend-1"
       style="overflow:visible">
      <path
         id="path4183-9"
         d="M 0,0 5,-5 -12.5,0 5,5 0,0 z"
         style="fill-rule:evenodd;stroke:#000000;stroke-width:1pt"
         transform="matrix(-0.8,0,0,-0.8,-10,0)"
         inkscape:connector-curvature="0" />
    </marker>
    <marker
       inkscape:stockid="Arrow1Lstart"
       orient="auto"
       refY="0"
       refX="0"
       id="Arrow1Lstart-5"
       style="overflow:visible">
      <path
         id="path4180-0"
         d="M 0,0 5,-5 -12.5,0 5,5 0,0 z"
         style="fill-rule:evenodd;stroke:#000000;stroke-width:1pt"
         transform="matrix(0.8,0,0,0.8,10,0)"
         inkscape:connector-curvature="0" />
    </marker>
    <marker
       inkscape:stockid="Arrow1Lend"
       orient="auto"
       refY="0"
       refX="0"
       id="Arrow1Lend-6"
       style="overflow:visible">
      <path
         id="path4183-5"
         d="M 0,0 5,-5 -12.5,0 5,5 0,0 z"
         style="fill-rule:evenodd;stroke:#000000;stroke-width:1pt"
         transform="matrix(-0.8,0,0,-0.8,-10,0)"
         inkscape:connector-curvature="0" />
    </marker>
  </defs>
  <sodipodi:namedview
     id="base"
     pagecolor="#ffffff"
     bordercolor="#666666"
     borderopacity="1.0"
     inkscape:pageopacity="0.0"
     inkscape:pageshadow="2"
     inkscape:zoom="0.7"
     inkscape:cx="467.59049"
     inkscape:cy="282.75718"
     inkscape:document-units="mm"
     inkscape:current-layer="layer1"
     showgrid="true"
     inkscape:window-width="1280"
     inkscape:window-height="745"
     inkscape:window-x="0"
     inkscape:window-y="25"
     inkscape:window-maximized="1"
     fit-margin-top="0"
     fit-margin-left="0"
     fit-margin-right="0"
     fit-margin-bottom="0"
     showguides="false"
     inkscape:guide-bbox="true"
     units="mm">
    <inkscape:grid
       type="xygrid"
       id="grid3776"
       empspacing="5"
       visible="true"
       enabled="true"
       snapvisiblegridlinesonly="true"
       units="mm"
       spacingx="1mm"
       spacingy="1mm" />
    <sodipodi:guide
       orientation="1,0"
       position="63.408645,147.05892"
       id="guide3778" />
  </sodipodi:namedview>
  <metadata
     id="metadata7">
    <rdf:RDF>
      <cc:Work
         rdf:about="">
        <dc:format>image/svg+xml</dc:format>
        <dc:type
           rdf:resource="http://purl.org/dc/dcmitype/StillImage" />
        <dc:title />
      </cc:Work>
    </rdf:RDF>
  </metadata>
  <g
     inkscape:label="Layer 1"
     inkscape:groupmode="layer"
     id="layer1"
     transform="translate(-85.337585,186.35118)">
    <g
       id="g3872"
       transform="translate(4.596995e-6,-265.74802)">
      <rect
         y="97.113411"
         x="173.92026"
         height="354.33072"
         width="708.66144"
         id="rect3059"
         style="fill:#000fff;fill-opacity:1;fill-rule:nonzero;stroke:none" />
      <g
         transform="matrix(1.2500157,0,0,-1.2500157,156.20068,802.23383)"
         inkscape:label="thing-28"
         id="g3140">
        <g
           id="g3142">
          <g
             transform="matrix(1,0,0,-1,0,841.88446)"
             id="g3144">
            <path
               id="path3146"
               style="fill:#ffffff;fill-opacity:1;stroke:none"
               d="m 155.906,277.793 283.461,0 0,283.461 -283.461,0 0,-283.461 z"
               inkscape:connector-curvature="0" />
          </g>
          <path
             id="path3148"
             style="fill:#000000;fill-opacity:1;fill-rule:nonzero;stroke:none"
             d="m 179.527,540.47 236.219,0 0,-236.219 -236.219,0 0,236.219 z"
             inkscape:connector-curvature="0" />
          <path
             id="path3150"
             style="fill:#ffffff;fill-opacity:1;fill-rule:nonzero;stroke:none"
             d="m 274.016,493.224 23.621,0 0,-23.621 -23.621,0 0,23.621 z m 23.621,0 23.621,0 0,-23.621 -23.621,0 0,23.621 z m 47.242,0 23.621,0 0,-23.621 -23.621,0 0,23.621 z m -118.109,-23.621 23.621,0 0,-23.621 -23.621,0 0,23.621 z m 47.246,0 23.621,0 0,-23.621 -23.621,0 0,23.621 z m 23.621,0 23.621,0 0,-23.621 -23.621,0 0,23.621 z m 47.242,0 23.621,0 0,-23.621 -23.621,0 0,23.621 z m 0,-23.621 23.621,0 0,-23.621 -23.621,0 0,23.621 z m -118.109,-23.621 23.621,0 0,-23.621 -23.621,0 0,23.621 z m 23.621,0 23.621,0 0,-23.621 -23.621,0 0,23.621 z m 23.625,0 23.621,0 0,-23.621 -23.621,0 0,23.621 z m 47.242,0 23.621,0 0,-23.621 -23.621,0 0,23.621 z m -47.242,-23.625 23.621,0 0,-23.621 -23.621,0 0,23.621 z m 70.863,0 23.621,0 0,-23.621 -23.621,0 0,23.621 z m -118.109,-23.621 23.621,0 0,-23.621 -23.621,0 0,23.621 z m 23.621,0 23.621,0 0,-23.621 -23.621,0 0,23.621 z m 47.246,0 23.621,0 0,-23.621 -23.621,0 0,23.621 z"
             inkscape:connector-curvature="0" />
          <text
             id="text3152"
             transform="matrix(1,0,0,-1,185.76172,310.48602)">
            <tspan
               id="tspan3154"
               sodipodi:role="line"
               y="0"
               x="0 1.6588242 3.3238845 7.127955 10.601508 14.268382 17.741936 19.400759 21.302794 27.146095 30.819206 33.288734 36.762287 40.447868 42.917397 44.819431 49.839558 53.656101 57.472645 59.37468 61.713245 65.261635 69.078178 70.980209 74.79052 77.135323 82.841431 84.481544 88.647316 93.368103 97.483978 102.20477 105.86541"
               style="font-size:6.23618078px;font-variant:normal;font-weight:normal;writing-mode:lr-tb;fill:#808080;fill-opacity:1;fill-rule:nonzero;stroke:none;font-family:DejaVu Sans;-inkscape-font-specification:DejaVuSans">libkoki marker #28 (v0.5) 'ROBOT'</tspan>
          </text>
          <path
             id="path3156"
             style="fill:#333333;fill-opacity:1;fill-rule:nonzero;stroke:none"
             d="m 206.102,516.845 c 0,-3.933 -5.907,-3.933 -5.907,0 0,3.938 5.907,3.938 5.907,0"
             inkscape:connector-curvature="0" />
        </g>
      </g>
    </g>
    <g
       id="g5583"
       transform="translate(-534.74116,-671.78419)">
      <path
         sodipodi:nodetypes="cc"
         transform="translate(0,308.2677)"
         inkscape:connector-curvature="0"
         id="path4998"
         d="m 708.66142,620.07873 0,-70.86614"
         style="fill:none;stroke:#000000;stroke-width:1.77165353;stroke-linecap:butt;stroke-linejoin:miter;stroke-miterlimit:4;stroke-opacity:1;stroke-dasharray:5.3149606, 5.3149606;stroke-dashoffset:0" />
      <path
         style="fill:none;stroke:#000000;stroke-width:1.77165353;stroke-linecap:butt;stroke-linejoin:miter;stroke-miterlimit:4;stroke-opacity:1;stroke-dasharray:5.3149606, 5.3149606;stroke-dashoffset:0"
         d="m 1417.3228,928.34643 0,-70.86614"
         id="path5000"
         inkscape:connector-curvature="0"
         sodipodi:nodetypes="cc" />
      <path
         style="fill:none;stroke:#000000;stroke-width:1.77165353;stroke-linecap:butt;stroke-linejoin:miter;stroke-miterlimit:4;stroke-opacity:1;stroke-dasharray:none;marker-start:url(#Arrow1Lstart);marker-mid:none;marker-end:url(#Arrow1Lend)"
         d="m 708.66142,910.6299 c 42.50679,0 666.15458,-10e-6 708.66138,-10e-6"
         id="path5002"
         inkscape:connector-curvature="0"
         sodipodi:nodetypes="cc" />
      <text
         xml:space="preserve"
         style="font-size:11px;font-style:normal;font-weight:normal;line-height:125%;letter-spacing:0px;word-spacing:0px;fill:#000000;fill-opacity:1;stroke:none;font-family:Bitstream Vera Sans"
         x="1029.2909"
         y="903.54327"
         id="text5562"
         sodipodi:linespacing="125%"><tspan
           sodipodi:role="line"
           id="tspan5564"
           x="1029.2909"
           y="903.54327"
           style="font-size:20px">200±5</tspan></text>
    </g>
    <g
       id="g5576"
       transform="matrix(0,-1,1,0,-594.97735,929.79055)">
      <path
         style="fill:none;stroke:#000000;stroke-width:1.77165353;stroke-linecap:butt;stroke-linejoin:miter;stroke-miterlimit:4;stroke-opacity:1;stroke-dasharray:5.3149606, 5.3149606;stroke-dashoffset:0"
         d="m 744.09451,768.89761 0,-70.86614"
         id="path5566"
         inkscape:connector-curvature="0"
         sodipodi:nodetypes="cc" />
      <path
         sodipodi:nodetypes="cc"
         inkscape:connector-curvature="0"
         id="path5568"
         d="m 1098.4252,768.89761 0,-70.86614"
         style="fill:none;stroke:#000000;stroke-width:1.77165353;stroke-linecap:butt;stroke-linejoin:miter;stroke-miterlimit:4;stroke-opacity:1;stroke-dasharray:5.3149606, 5.3149606;stroke-dashoffset:0" />
      <path
         sodipodi:nodetypes="cc"
         inkscape:connector-curvature="0"
         id="path5570"
         d="m 744.09451,715.74801 c 42.50679,0 311.82389,0 354.33069,0"
         style="fill:none;stroke:#000000;stroke-width:1.77165353;stroke-linecap:butt;stroke-linejoin:miter;stroke-miterlimit:4;stroke-opacity:1;stroke-dasharray:none;marker-start:url(#Arrow1Lstart);marker-mid:none;marker-end:url(#Arrow1Lend)" />
      <text
         sodipodi:linespacing="125%"
         id="text5572"
         y="708.66138"
         x="887.19244"
         style="font-size:11px;font-style:normal;font-weight:normal;line-height:125%;letter-spacing:0px;word-spacing:0px;fill:#000000;fill-opacity:1;stroke:none;font-family:Bitstream Vera Sans"
         xml:space="preserve"><tspan
           style="font-size:20px"
           y="708.66138"
           x="887.19244"
           id="tspan5574"
           sodipodi:role="line">100±5</tspan></text>
    </g>
  </g>
</svg>
