<?xml version="1.0" encoding="UTF-8" standalone="no"?>
<!-- Created with Inkscape (http://www.inkscape.org/) -->

<svg
   xmlns:dc="http://purl.org/dc/elements/1.1/"
   xmlns:cc="http://creativecommons.org/ns#"
   xmlns:rdf="http://www.w3.org/1999/02/22-rdf-syntax-ns#"
   xmlns:svg="http://www.w3.org/2000/svg"
   xmlns="http://www.w3.org/2000/svg"
   xmlns:sodipodi="http://sodipodi.sourceforge.net/DTD/sodipodi-0.dtd"
   xmlns:inkscape="http://www.inkscape.org/namespaces/inkscape"
   width="210mm"
   height="297mm"
   viewBox="0 0 744.09448819 1052.3622047"
   id="svg4263"
   version="1.1"
   inkscape:version="0.91 r13725"
   sodipodi:docname="token.svg">
  <defs
     id="defs4265">
    <filter
       style="color-interpolation-filters:sRGB"
       id="filter4357"
       inkscape:label="filter1" />
  </defs>
  <sodipodi:namedview
     id="base"
     pagecolor="#ffffff"
     bordercolor="#666666"
     borderopacity="1.0"
     inkscape:pageopacity="0.0"
     inkscape:pageshadow="2"
     inkscape:zoom="13.225685"
     inkscape:cx="29.282153"
     inkscape:cy="10.182465"
     inkscape:document-units="px"
     inkscape:current-layer="layer1"
     showgrid="false"
     inkscape:window-width="1920"
     inkscape:window-height="1017"
     inkscape:window-x="-8"
     inkscape:window-y="-8"
     inkscape:window-maximized="1" />
  <metadata
     id="metadata4268">
    <rdf:RDF>
      <cc:Work
         rdf:about="">
        <dc:format>image/svg+xml</dc:format>
        <dc:type
           rdf:resource="http://purl.org/dc/dcmitype/StillImage" />
        <dc:title></dc:title>
      </cc:Work>
    </rdf:RDF>
  </metadata>
  <g
     inkscape:label="Layer 1"
     inkscape:groupmode="layer"
     id="layer1">
    <rect
       style="fill:#666666;fill-opacity:1"
       id="rect4271"
       width="25"
       height="25"
       x="0"
       y="1027.3622" />
    <path
       style="fill:#008000;fill-opacity:1"
       d="m 0.4999,1028.3622 0.5001,0 0,11.5 0,11.5 -0.5001,0 -0.4999,0 0,-11.5 0,-11.5 0.4999,0 z"
       id="path4277-7-1"
       inkscape:connector-curvature="0" />
    <path
       style="fill:#008000;fill-opacity:1"
       d="m 4.005e-4,1051.8624 0,0.5 0.047,-0.045 c 0.054,-0.051 0.7352,-0.7325 0.8658,-0.8664 l 0.087,-0.089 -0.5,0 -0.5,0 0,0.5 z"
       id="path4363-6-9"
       inkscape:connector-curvature="0" />
    <path
       style="fill:#008000;fill-opacity:1"
       d="m 0.5004005,1028.362 0.5,0 -0.045,-0.047 c -0.051,-0.054 -0.7325,-0.7352 -0.8664,-0.8658 l -0.0890000000001,-0.087 0,0.5 0,0.5 0.50000000000006,0 z"
       id="path4363-6-1-1"
       inkscape:connector-curvature="0" />
    <path
       style="fill:#ff0000;fill-opacity:1"
       d="m 1,1051.8617 0,0.5001 11.5,0 11.5,0 0,-0.5001 0,-0.4999 -11.5,0 -11.5,0 0,0.4999 z"
       id="path4277-7-6"
       inkscape:connector-curvature="0" />
    <path
       style="fill:#ff0000;fill-opacity:1"
       d="m 0.999996,1051.8618 0,-0.5 -0.04736,0.045 c -0.05422,0.051 -0.735196,0.7325 -0.865856,0.8664 L 0,1052.3622 l 0.5,0 0.5,0 0,-0.5 z"
       id="path4363-6-8"
       inkscape:connector-curvature="0" />
    <path
       style="fill:#ff0000;fill-opacity:1"
       d="m 24.000004,1051.8618 0,-0.5 0.04736,0.045 c 0.05422,0.051 0.735195,0.7325 0.865855,0.8664 l 0.08678,0.089 -0.5,0 -0.499999,0 0,-0.5 z"
       id="path4363-6-1-18"
       inkscape:connector-curvature="0" />
    <path
       style="fill:#ffff00;fill-opacity:1"
       d="m 1,1027.8623 0,-0.5001 11.5,0 11.5,0 0,0.5001 0,0.4999 -11.5,0 -11.5,0 0,-0.4999 z"
       id="path4277-7"
       inkscape:connector-curvature="0" />
    <path
       style="fill:#ffff00;fill-opacity:1"
       d="m 0.999996,1027.8622 0,0.5 -0.04736,-0.045 c -0.05422,-0.051 -0.735196,-0.7325 -0.865856,-0.8664 L 0,1027.3618 l 0.5,0 0.5,0 0,0.5 z"
       id="path4363-6"
       inkscape:connector-curvature="0"
       inkscape:transform-center-x="4.9902899"
       inkscape:transform-center-y="3.3268599" />
    <path
       style="fill:#ffff00;fill-opacity:1"
       d="m 24.000004,1027.8622 0,0.5 0.04736,-0.045 c 0.05422,-0.051 0.735195,-0.7325 0.865855,-0.8664 l 0.08678,-0.089 -0.5,0 -0.499999,0 0,0.5 z"
       id="path4363-6-1"
       inkscape:connector-curvature="0" />
    <path
       style="fill:#00ffff;fill-opacity:1"
       d="m 24.5005,1028.362 -0.5001,0 0,11.5 0,11.5 0.5001,0 0.4999,0 0,-11.5 0,-11.5 -0.4999,0 z"
       id="path4277-7-1-0"
       inkscape:connector-curvature="0" />
    <path
       style="fill:#00ffff;fill-opacity:1"
       d="m 25,1051.8622 0,0.5 -0.047,-0.045 c -0.054,-0.051 -0.7352,-0.7325 -0.8658,-0.8664 l -0.087,-0.089 0.5,0 0.5,0 0,0.5 z"
       id="path4363-6-9-9"
       inkscape:connector-curvature="0" />
    <path
       style="fill:#00ffff;fill-opacity:1"
       d="m 24.5,1028.3618 -0.5,0 0.045,-0.047 c 0.051,-0.054 0.7325,-0.7352 0.8664,-0.8658 l 0.089,-0.087 0,0.5 0,0.5 -0.5,0 z"
       id="path4363-6-1-1-7"
       inkscape:connector-curvature="0" />
  </g>
</svg>
