<?xml version="1.0" encoding="UTF-8" standalone="no"?>
<!-- Created with Inkscape (http://www.inkscape.org/) -->

<svg
   xmlns:dc="http://purl.org/dc/elements/1.1/"
   xmlns:cc="http://creativecommons.org/ns#"
   xmlns:rdf="http://www.w3.org/1999/02/22-rdf-syntax-ns#"
   xmlns:svg="http://www.w3.org/2000/svg"
   xmlns="http://www.w3.org/2000/svg"
   xmlns:sodipodi="http://sodipodi.sourceforge.net/DTD/sodipodi-0.dtd"
   xmlns:inkscape="http://www.inkscape.org/namespaces/inkscape"
   width="265.79892"
   height="241.69246"
   id="svg241"
   sodipodi:version="0.32"
   inkscape:version="0.46+devel"
   sodipodi:docname="trapdoor-start.svg"
   inkscape:output_extension="org.inkscape.output.svg.inkscape"
   version="1.0">
  <defs
     id="defs243">
    <inkscape:perspective
       sodipodi:type="inkscape:persp3d"
       inkscape:vp_x="0 : 526.18109 : 1"
       inkscape:vp_y="0 : 1000 : 0"
       inkscape:vp_z="744.09448 : 526.18109 : 1"
       inkscape:persp3d-origin="372.04724 : 350.78739 : 1"
       id="perspective249" />
    <inkscape:perspective
       id="perspective259"
       inkscape:persp3d-origin="0.5 : 0.33333333 : 1"
       inkscape:vp_z="1 : 0.5 : 1"
       inkscape:vp_y="0 : 1000 : 0"
       inkscape:vp_x="0 : 0.5 : 1"
       sodipodi:type="inkscape:persp3d" />
    <clipPath
       clipPathUnits="userSpaceOnUse"
       id="clipPath407">
      <path
         style="stroke-width:1px"
         d="m 303.19643,194.0821 c -11.69854,8.38759 -29.3918,6.3079 -37.69968,19.49114 -8.01109,12.74299 -15.22884,25.42395 -29.45972,31.32645 -5.54811,12.07584 1.73676,28.89319 14.06596,34.07371 8.98231,7.74236 18.32846,15.81999 22.08323,27.49515 2.35017,8.3397 7.22827,20.67179 14.44299,28.39013 8.1145,9.65892 20.47003,13.35713 32.29889,15.8862 10.89441,3.02369 16.40104,13.20578 24.32603,20.1337 9.53922,7.4562 18.5247,0.16833 30.07926,-2.29572 12.77755,-3.06472 21.23203,-15.02759 33.52265,-19.19924 10.59905,-7.81382 23.21514,-17.15463 33.48325,-25.30153 16.55152,-4.68759 26.88151,-6.65117 39.28571,-17.14285 7.55493,-13.20885 19.42299,-25.73378 17.86719,-42.11775 2.40357,-20.86934 0.68736,-41.938 2.18875,-62.84105 1.47092,-12.11835 -3.30287,-23.34221 -9.44139,-33.54829 -6.72492,-11.70541 -20.49071,-16.21437 -31.22913,-23.27704 -14.69809,-7.56422 -30.9837,-11.01594 -47.41685,-11.62619 -10.86163,-3.15013 -22.27331,0.84064 -29.58881,9.28996 -11.6336,11.46226 -26.09333,19.43046 -38.32052,30.18562 -10.47249,7.69148 -23.71557,8.99841 -34.61857,15.89346 -2.24342,1.36266 -4.24777,3.1179 -5.86924,5.18414 z"
         id="path409"
         sodipodi:nodetypes="ccccccccccccccccccccc" />
    </clipPath>
  </defs>
  <sodipodi:namedview
     id="base"
     pagecolor="#ffffff"
     bordercolor="#666666"
     borderopacity="1.0"
     inkscape:pageopacity="0.0"
     inkscape:pageshadow="2"
     inkscape:zoom="1.979899"
     inkscape:cx="139.73121"
     inkscape:cy="156.47807"
     inkscape:document-units="px"
     inkscape:current-layer="layer1"
     showgrid="true"
     inkscape:window-width="1280"
     inkscape:window-height="725"
     inkscape:window-x="0"
     inkscape:window-y="25">
    <inkscape:grid
       type="axonomgrid"
       id="grid650"
       units="mm"
       empspacing="5"
       visible="true"
       enabled="true"
       snapvisiblegridlinesonly="true"
       spacingy="0.4mm" />
  </sodipodi:namedview>
  <metadata
     id="metadata246">
    <rdf:RDF>
      <cc:Work
         rdf:about="">
        <dc:format>image/svg+xml</dc:format>
        <dc:type
           rdf:resource="http://purl.org/dc/dcmitype/StillImage" />
        <dc:title></dc:title>
      </cc:Work>
    </rdf:RDF>
  </metadata>
  <g
     inkscape:label="Layer 1"
     inkscape:groupmode="layer"
     id="layer1"
     transform="translate(-273.81116,-375.02175)">
    <g
       transform="translate(39.660713,242.5658)"
       style="display:inline"
       id="g153"
       clip-path="url(#clipPath407)">
      <path
         id="path877"
         d="m 338.25695,263.19151 147.21808,0.96315 98.19501,56.69291 -147.29251,0 -98.12058,-57.65606 z"
         style="fill:#ffffff;fill-opacity:1;stroke:#000000;stroke-width:2;stroke-linejoin:bevel;stroke-miterlimit:4;stroke-opacity:1;stroke-dasharray:none;display:inline"
         transform="translate(-195.07143,-161.99212)" />
      <path
         sodipodi:nodetypes="ccc"
         id="path846"
         d="m 650.16064,451.10116 -54.5448,-31.03878 -67.50907,38.97638"
         style="fill:none;stroke:#000000;stroke-width:2;stroke-miterlimit:4;stroke-opacity:1;stroke-dasharray:none;display:inline"
         transform="translate(-195.07143,-161.99212)" />
      <path
         sodipodi:nodetypes="ccccccccccc"
         id="path873"
         d="m 486.90589,263.18728 96.76415,57.66029 -147.29251,85.03937 98.195,56.69292 -0.32857,0.002 -61.37188,-35.43307 122.74376,-70.86594 61.37188,35.43307 L 804.29021,306.67435 607.9002,193.28852 486.90589,263.18728 z"
         style="fill:#ffffff;fill-opacity:1;stroke:#000000;stroke-width:2;stroke-linejoin:bevel;stroke-miterlimit:4;stroke-opacity:1;stroke-dasharray:none;display:inline"
         transform="translate(-195.07143,-161.99212)" />
      <path
         sodipodi:nodetypes="ccc"
         id="path841"
         d="M 410.98794,589.47078 534.57253,462.57986 410.98794,589.47078 z"
         style="fill:#25dd00;fill-opacity:1;stroke:#000000;stroke-width:2;stroke-miterlimit:4;stroke-opacity:1;stroke-dasharray:none;display:inline"
         transform="translate(-195.07143,-161.99212)" />
      <path
         id="path875"
         d="m 216.53357,332.38695 121.64895,-68.23229 98.19501,56.69291 -122.74376,70.86614 -97.1002,-59.32676 z"
         style="fill:#ffffff;fill-opacity:1;stroke:#000000;stroke-width:2;stroke-miterlimit:4;stroke-opacity:1;stroke-dasharray:none;display:inline"
         transform="translate(-195.07143,-161.99212)" />
      <path
         id="path849"
         d="m 583.33446,320.33014 0.33558,-13.6558 -147.29251,0 -122.74376,70.86615 0,155.90551 122.74376,-127.55906 147.29251,-85.03937 -0.33558,-0.51743 z"
         style="fill:#25dd00;fill-opacity:1;stroke:#000000;stroke-width:2;stroke-miterlimit:4;stroke-opacity:1;stroke-dasharray:none;display:inline"
         transform="translate(-195.07143,-161.99212)" />
      <path
         sodipodi:nodetypes="ccccccccc"
         id="path879"
         d="m 215.12018,321.40156 123.06234,-71.42013 147.29251,0 122.42517,-70.86614 0,14.17323 -122.42517,70.86614 -147.29251,0 -122.74376,70.86614 -0.31858,-13.61924 z"
         style="fill:#ffffff;fill-opacity:1;stroke:#000000;stroke-width:2;stroke-linejoin:bevel;stroke-miterlimit:4;stroke-opacity:1;stroke-dasharray:none;display:inline"
         transform="translate(-195.07143,-161.99212)" />
      <path
         id="path851"
         d="m 215.47732,477.47299 98.15645,55.97301 0,-155.90551 -98.19501,-56.69292 0.0386,156.62542 z"
         style="fill:#25dd00;fill-opacity:1;stroke:#000000;stroke-width:2;stroke-linejoin:bevel;stroke-miterlimit:4;stroke-opacity:1;stroke-dasharray:none;display:inline"
         transform="translate(-195.07143,-161.99212)" />
      <path
         sodipodi:nodetypes="ccccc"
         id="path857"
         d="m 607.9002,179.11529 196.39001,113.38583 0,14.17323 -196.39001,-113.38583 0,-14.17323 z"
         style="fill:none;stroke:#000000;stroke-width:2;stroke-linejoin:bevel;stroke-miterlimit:4;stroke-opacity:1;stroke-dasharray:none;display:inline"
         transform="translate(-195.07143,-161.99212)" />
      <path
         sodipodi:nodetypes="ccccc"
         id="path861"
         d="m 650.16064,380.23502 0,70.86614 154.12957,-87.7339 0,-70.86614 -154.12957,87.7339 z"
         style="fill:#25dd00;fill-opacity:1;stroke:#000000;stroke-width:2;stroke-linejoin:bevel;stroke-miterlimit:4;stroke-opacity:1;stroke-dasharray:none;display:inline"
         transform="translate(-195.07143,-161.99212)" />
      <path
         id="path869"
         d="m 313.50822,533.91239 122.86931,-128.02545 98.195,56.69292 -122.74375,127.55905 -98.32056,-56.22652 z"
         style="fill:#ffffff;fill-opacity:1;stroke:#000000;stroke-width:2;stroke-miterlimit:4;stroke-opacity:1;stroke-dasharray:none;display:inline"
         transform="translate(-195.07143,-161.99212)" />
      <path
         sodipodi:nodetypes="ccccc"
         id="path871"
         d="m 412.62018,591.75871 0,-16.24994 121.95235,-127.10214 -0.32857,70.86835 -121.62378,72.48373 z"
         style="fill:#25dd00;fill-opacity:1;stroke:#000000;stroke-width:2;stroke-linejoin:bevel;stroke-miterlimit:4;stroke-opacity:1;stroke-dasharray:none;display:inline"
         transform="translate(-195.07143,-161.99212)" />
      <path
         sodipodi:nodetypes="ccc"
         id="path848"
         d="m 595.61584,356.28285 0,63.77953 0,0"
         style="stroke:#000000;stroke-width:2;stroke-miterlimit:4;stroke-opacity:1;stroke-dasharray:none;display:inline"
         transform="translate(-195.07143,-161.99212)" />
      <g
         id="g105"
         style="display:inline"
         transform="translate(-4.5,8.5365429)">
        <path
           style="stroke-width:1px"
           d="m 300.71875,267.25 0,0 z m -28.46875,9.20703 -106.53125,111.26172 12.25,7.09375 L 285.375,283.19531 272.25,276.45703 z"
           id="path80"
           sodipodi:nodetypes="ccccccc" />
        <path
           style="stroke-width:1px"
           d="m 613.71875,129.0625 0,14.15625 73.625,42.53125 -466.40625,269.28125 -73.65625,-42.5 30.6875,-17.71875 -12.26468,-7.09202 -42.95407,24.81077 98.1875,56.6875 L 711.90625,185.75 699.625,178.65625 613.71875,129.0625 z"
           id="path84"
           sodipodi:nodetypes="cccccccccccc" />
        <path
           style="stroke-width:1px"
           d="m 417.32878,65.279535 -85.92063,49.606295 12.27437,7.08662 73.64626,-42.519686 92.04622,53.140986 -61.37028,35.4439 -18.41156,-10.62992 -12.27438,7.08662 49.09751,28.34645 12.27437,-7.08661 -18.41156,-10.62992 73.6584,-42.53052 -116.60872,-67.314215 z"
           id="path894"
           sodipodi:nodetypes="ccccccccccccc" />
        <path
           style="stroke-width:1px"
           d="m 331.78572,114.44151 -147.67008,0.44432 12.27437,7.08662 147.29251,0 -11.8968,-7.53094 z"
           id="path899" />
        <path
           style="stroke-width:1px"
           d="m 184.28572,114.44151 -61.54196,35.8774 12.27437,7.08661 61.37188,-35.43307 -12.10429,-7.53094 z"
           id="path901" />
        <path
           style="stroke-width:1px"
           d="m 24.5625,242.4375 -85.9375,49.625 12.28125,7.0625 73.65625,-42.5 0,-14.1875 z m -85.9375,49.625 -12.28125,7.0625 153.4375,88.59375 L 92.0625,380.625 -61.375,292.0625 z"
           id="path905" />
        <path
           style="stroke-width:1px"
           d="m 337.54533,265.75024 42.96032,24.80315 -8.98547,8.98547 -42.92731,-24.7841 8.95246,-9.00452 z"
           id="path883"
           transform="translate(-73.65625,-5.5866032)" />
      </g>
      <path
         sodipodi:nodetypes="cccczcczcczccccccccccccccc"
         id="path66"
         d="m 128.88095,160.94883 3.06859,0 3.06859,0 3.0686,0 c 0,0 1.98068,-0.006 3.00609,-0.375 1.02541,-0.36948 2.82424,-1.7506 2.82424,-1.7506 l 5.43508,-4.16281 c 0,0 1.16948,-0.88112 2.30907,-2.81753 1.12385,-1.90966 1.62991,-8.38842 2.91826,-12.48135 0.79189,-1.59791 5.60114,-5.10944 5.60114,-5.10944 0,0 4.34509,-2.65121 5.16363,-4.10944 0.81854,-1.45823 0.4261,-3.40768 0.4261,-3.40768 l -0.0663,-1.21922 -5.21661,4.0748 -5.21661,4.0748 -5.21661,4.07481 -5.21661,4.0748 -3.98917,3.01181 -3.98917,3.01181 -3.98917,3.01181 -3.98917,3.01181 0,1.77165 0,1.77166 0,1.77165 0,1.77166 3e-5,0 z"
         style="fill:#fff000;fill-opacity:1;stroke:#000000;stroke-width:0.5;stroke-linejoin:bevel;stroke-miterlimit:4;stroke-opacity:1;stroke-dasharray:none;display:inline"
         transform="translate(-4.5,8.5365429)" />
      <path
         sodipodi:nodetypes="cczzccc"
         id="path860"
         d="m 110.89286,142.77812 20.44296,-8.75843 c 0,0 13.88494,-18.51897 15.95669,-19.13386 2.01424,-0.59782 18.14793,8.27741 18.41156,10.62993 0.26363,2.35252 -20.86644,16.29921 -20.86644,16.29921 l -15.95668,12.04724 -17.98809,-11.08409 z"
         style="fill:#fff000;fill-opacity:1;stroke:#000000;stroke-width:0.5;stroke-linejoin:bevel;stroke-miterlimit:4;stroke-opacity:1;stroke-dasharray:none;display:inline"
         transform="translate(-4.5,8.5365429)" />
      <path
         sodipodi:nodetypes="ccccccccccsscc"
         id="path858"
         d="m 128.88095,153.86221 -2.30145,-1.32874 -2.30144,-1.32874 -2.30145,-1.32874 -9.09529,-5.51383 c 0,0 -2.12183,-1.62138 -2.28694,-1.06737 -0.16744,0.56182 0.18186,1.88632 0.18186,1.88632 l 0.30686,1.94882 0.30686,1.94882 c 0.0559,2.27544 1.11778,2.41701 2.99188,3.49902 1.61101,0.93011 3.75903,2.17027 5.90705,3.41043 2.14801,1.24016 4.29603,2.48031 5.90704,3.41043 1.61101,0.93012 2.68502,1.5502 2.68502,1.5502 l 0,-7.08662 z"
         style="fill:#fff000;fill-opacity:1;stroke:#000000;stroke-width:0.5;stroke-miterlimit:4;stroke-opacity:1;stroke-dasharray:none;display:inline"
         transform="translate(-4.5,8.5365429)" />
      <path
         sodipodi:nodetypes="ccccc"
         id="path862"
         d="m 110.71429,143.01294 8.34716,-8.99325 8.59206,4.96063 1.22744,14.88189 -18.16666,-10.84927 z"
         style="fill:#fff000;fill-opacity:1;stroke:#000000;stroke-width:0.5;stroke-miterlimit:4;stroke-opacity:1;stroke-dasharray:none;display:inline"
         transform="translate(-4.5,8.5365429)" />
      <path
         sodipodi:nodetypes="cccccccacccz"
         id="path876"
         d="m 124.21427,143.78627 c -2.41409,1.38604 -1.47051,-10.47524 -1.47051,-10.47524 l 2.76173,-0.5315 2.76174,-0.53149 1.07401,-0.44291 1.074,-0.44292 1.07401,-0.44291 c 0,0 0.72091,-0.60191 1.07401,-0.44291 1.13974,0.51321 1.10411,2.81052 1.22744,3.5433 l 0,2.48032 0,1.77165 c 0,0 -7.17898,4.13812 -9.57643,5.51461 z"
         style="fill:#fff000;fill-opacity:1;stroke:#000000;stroke-width:0.5;stroke-miterlimit:4;stroke-opacity:1;stroke-dasharray:none;display:inline"
         transform="translate(-4.5,8.5365429)" />
      <path
         sodipodi:nodetypes="ccccczccccczcc"
         id="path878"
         d="m 122.74376,133.31103 -1.22744,-0.70866 -2.45488,-1.41733 -2.45487,-1.41732 -1.33793,-1.06221 c 0,0 -1.11695,1.35261 -1.11695,2.12521 l 0,4.96062 0,2.48032 2.45488,1.41732 2.45487,1.41733 c 1.81532,0.76403 3.09328,2.36734 4.90976,2.83464 0.76715,-0.44291 0.33146,-2.19033 0.33146,-3.43048 0,-1.24016 -0.20998,-2.36216 -0.33146,-4.01047 -0.17955,-0.96635 -1.22744,-3.18897 -1.22744,-3.18897 z"
         style="fill:#fff000;fill-opacity:1;stroke:#000000;stroke-width:0.5;stroke-linejoin:bevel;stroke-miterlimit:4;stroke-opacity:1;stroke-dasharray:none;display:inline"
         transform="translate(-4.5,8.5365429)" />
      <path
         sodipodi:nodetypes="ccccczzccccaac"
         id="path880"
         d="m 132.56326,130.47639 -1.22744,-0.70867 -1.84116,-1.06298 -2.14801,-1.24016 -0.92058,-0.5315 c -3.19685,-0.40253 -7.60779,0.29208 -9.51265,0.88583 -1.90486,0.59374 -1.62268,1.04128 -1.62268,1.04128 l 1.31583,0.90753 2.45487,1.41732 2.45488,1.41733 1.22744,0.70866 c 0,0 2.46697,0.17191 3.68231,0 0.84331,-0.11929 1.67118,-0.37517 2.45488,-0.70866 1.30416,-0.55495 3.68231,-2.12598 3.68231,-2.12598 z"
         style="fill:#fff000;fill-opacity:1;stroke:#000000;stroke-width:0.5;stroke-linejoin:bevel;stroke-miterlimit:4;stroke-opacity:1;stroke-dasharray:none;display:inline"
         transform="translate(-4.5,8.5365429)" />
      <path
         sodipodi:nodetypes="czcccc"
         id="path882"
         d="m 128.88095,153.86221 c 0,0 10.56271,-7.1995 10.82596,-8.14882 0.26325,-0.94933 -1.00396,-2.70012 -1.00396,-2.70012 l -4.91225,-4.74161 -6.13719,3.54331 1.22744,12.04724 z"
         style="fill:#fff000;fill-opacity:1;stroke:#000000;stroke-width:0.5;stroke-miterlimit:4;stroke-opacity:1;stroke-dasharray:none;display:inline"
         transform="translate(-4.5,8.5365429)" />
      <path
         sodipodi:nodetypes="cccczccczccczccczccczcccz"
         id="path888"
         d="m 116.60657,135.43702 c -0.44585,-0.0543 -1.22744,0.35433 -1.22744,0.35433 l -1.22743,0.35433 -1.22744,0.35433 c 0,0 -1.02845,0.0898 -1.22744,0.35433 -0.19899,0.26455 0,0.70866 0,0.70866 l 0,0.70866 0,0.70866 c 0,0 -0.17717,0.4018 0,0.70866 0.17717,0.30686 1.22744,0.70866 1.22744,0.70866 l 1.22744,0.70867 1.22743,0.70866 c 0,0 0.84042,0.64352 1.22744,0.70866 0.38702,0.0651 0.92058,-0.17716 0.92058,-0.17716 l 0.92058,-0.17717 0.92057,-0.17716 c 0,0 0.68436,0.0274 0.92058,-0.17717 0.23622,-0.20457 0.30686,-0.88583 0.30686,-0.88583 l 0.30686,-0.88582 0.30686,-0.88583 c 0,0 0.44396,-0.51809 0.30686,-0.88583 -0.1371,-0.36774 -1.22744,-0.70866 -1.22744,-0.70866 l -1.22743,-0.70866 -1.22744,-0.70866 c 0,0 -0.78159,-0.65432 -1.22744,-0.70866 z"
         style="fill:#ffa100;fill-opacity:1;stroke:#000000;stroke-width:0.5;stroke-miterlimit:4;stroke-opacity:1;stroke-dasharray:none;display:inline"
         transform="translate(-4.5,8.5365429)" />
      <path
         sodipodi:nodetypes="cczcczcc"
         id="path891"
         d="m 120.28888,141.81497 -2.76173,-0.53151 c 0,0 -0.60818,-0.0607 -0.92058,-0.17717 -0.3124,-0.11647 -0.92058,-0.5315 -0.92058,-0.5315 l -1.84115,-1.06299 c 0,0 -0.72298,-0.3339 -0.92058,-0.5315 -0.1976,-0.1976 -0.30686,-0.5315 -0.30686,-0.5315 l -0.92058,-1.59448"
         style="fill:none;stroke:#000000;stroke-width:0.5;stroke-miterlimit:4;stroke-opacity:1;stroke-dasharray:none;display:inline"
         transform="translate(-4.5,8.5365429)" />
      <path
         sodipodi:nodetypes="ccc"
         id="path893"
         d="m 147.00731,131.86876 12.54748,-11.21264 1.51575,0.97537"
         style="fill:#000000;fill-opacity:1;stroke:none;display:inline"
         transform="translate(-4.5,8.5365429)" />
      <path
         sodipodi:nodetypes="cccc"
         id="path895"
         d="m 142.99722,129.72946 8.98302,-13.30321 1.55523,0.89758 -10.53825,12.40563 z"
         style="stroke-width:1px;display:inline"
         transform="translate(-4.5,8.5365429)" />
      <path
         id="path897"
         d="m 116.87149,131.2899 -1.41421,0.88389 0.22097,1.5026 1.19324,0.70711 1.28163,-0.97228 0,-1.32582 -1.28163,-0.7955 z"
         style="stroke-width:1px;display:inline"
         transform="translate(-4.5,8.5365429)" />
      <path
         id="path900"
         d="m 119.65573,134.22881 1.23743,-0.64082 1.25954,0.70711 -0.0221,1.41421 -1.17115,0.72921 -1.28163,-0.7955 -0.0221,-1.41421 z"
         style="stroke-width:1px;display:inline"
         transform="translate(-4.5,8.5365429)" />
      <path
         id="path902"
         d="m 111.81126,142.25005 -1.23744,0.83969 1.14905,2.91682 16.83798,9.05981 0,-2.07713 -8.70625,-8.30851 -8.04334,-2.43068 z"
         style="fill:#fff000;fill-opacity:1;stroke-width:1px;display:inline"
         transform="translate(-4.5,8.5365429)" />
      <path
         sodipodi:nodetypes="cc"
         id="path2034"
         d="M 217.38102,429.17249 339.18252,300.58774"
         style="fill:none;stroke:#000000;stroke-width:2;stroke-miterlimit:4;stroke-opacity:1;stroke-dasharray:6, 6;stroke-dashoffset:0;display:inline" />
      <path
         sodipodi:nodetypes="cc"
         id="path2038"
         d="m 455.08921,232.41613 154.12957,-87.7339"
         style="stroke:#000000;stroke-width:2;stroke-miterlimit:4;stroke-opacity:1;stroke-dasharray:6, 6;stroke-dashoffset:0;display:inline" />
      <path
         id="path2040"
         d="m 385.63151,158.09055 -143.31914,0 -124.06862,71.63105 -98.194998,-56.69292 12.274376,-7.08661"
         style="fill:none;stroke:#000000;stroke-width:2;stroke-miterlimit:4;stroke-opacity:1;stroke-dasharray:6, 6;stroke-dashoffset:0;display:inline" />
      <path
         sodipodi:nodetypes="cccccccc"
         id="path844"
         d="m 320.76096,268.70018 122.74376,-70.86614 0,70.86614 -104.33219,60.23622 0,-42.51968 -8.59207,9.21259 -9.8195,-5.66929 0,-21.25984 z"
         style="fill:#ffffff;fill-opacity:1;stroke:#000000;stroke-width:2;stroke-linejoin:bevel;stroke-miterlimit:4;stroke-opacity:1;stroke-dasharray:none" />
      <path
         sodipodi:nodetypes="ccccc"
         id="path874"
         d="m 320.76096,268.70018 -12.27437,-7.08661 122.74376,-70.86615 12.27437,7.08662 -122.74376,70.86614 z"
         style="fill:#25dd00;fill-opacity:1;stroke:#000000;stroke-width:2;stroke-linejoin:bevel;stroke-miterlimit:4;stroke-opacity:1;stroke-dasharray:none;display:inline" />
      <path
         sodipodi:nodetypes="cc"
         id="path842"
         d="M 321.76096,288.96002 443.50472,219.09388"
         style="stroke:#393939;stroke-width:2;stroke-miterlimit:4;stroke-opacity:1;stroke-dasharray:2, 4;stroke-dashoffset:0;display:inline" />
    </g>
  </g>
</svg>
